<?xml version="1.0" encoding="UTF-8"?><svg id="Layer_2" xmlns="http://www.w3.org/2000/svg" xmlns:xlink="http://www.w3.org/1999/xlink" viewBox="0 0 781.13 263.49"><defs><style>.cls-1{filter:url(#drop-shadow-4);}.cls-2{fill:none;}.cls-2,.cls-3,.cls-4{stroke-width:0px;}.cls-5{filter:url(#drop-shadow-1);}.cls-6{filter:url(#drop-shadow-6);}.cls-3,.cls-4{fill:#fff;}.cls-7{filter:url(#drop-shadow-5);}.cls-8{filter:url(#drop-shadow-2);}.cls-9{clip-path:url(#clippath);}.cls-4{filter:url(#drop-shadow-3);}</style><clipPath id="clippath"><rect class="cls-2" width="781.13" height="263.49"/></clipPath><filter id="drop-shadow-1" filterUnits="userSpaceOnUse"><feOffset dx="7" dy="7"/><feGaussianBlur result="blur" stdDeviation="5"/><feFlood flood-color="#273456" flood-opacity=".5"/><feComposite in2="blur" operator="in"/><feComposite in="SourceGraphic"/></filter><filter id="drop-shadow-2" filterUnits="userSpaceOnUse"><feOffset dx="7" dy="7"/><feGaussianBlur result="blur-2" stdDeviation="5"/><feFlood flood-color="#273456" flood-opacity=".5"/><feComposite in2="blur-2" operator="in"/><feComposite in="SourceGraphic"/></filter><filter id="drop-shadow-3" filterUnits="userSpaceOnUse"><feOffset dx="7" dy="7"/><feGaussianBlur result="blur-3" stdDeviation="5"/><feFlood flood-color="#273456" flood-opacity=".5"/><feComposite in2="blur-3" operator="in"/><feComposite in="SourceGraphic"/></filter><filter id="drop-shadow-4" filterUnits="userSpaceOnUse"><feOffset dx="7" dy="7"/><feGaussianBlur result="blur-4" stdDeviation="5"/><feFlood flood-color="#273456" flood-opacity=".5"/><feComposite in2="blur-4" operator="in"/><feComposite in="SourceGraphic"/></filter><filter id="drop-shadow-5" filterUnits="userSpaceOnUse"><feOffset dx="7" dy="7"/><feGaussianBlur result="blur-5" stdDeviation="5"/><feFlood flood-color="#273456" flood-opacity=".5"/><feComposite in2="blur-5" operator="in"/><feComposite in="SourceGraphic"/></filter><filter id="drop-shadow-6" filterUnits="userSpaceOnUse"><feOffset dx="7" dy="7"/><feGaussianBlur result="blur-6" stdDeviation="5"/><feFlood flood-color="#273456" flood-opacity=".5"/><feComposite in2="blur-6" operator="in"/><feComposite in="SourceGraphic"/></filter></defs><g id="Layer_1-2"><g class="cls-9"><g class="cls-5"><path class="cls-3" d="m170.6,50.15c1.75,0,3.36.16,4.84.48s2.76.8,3.83,1.46,1.91,1.49,2.51,2.51.9,2.25.9,3.68v15.71h-7.06v-15.44c0-.8-.18-1.43-.55-1.88s-.81-.79-1.34-1.01-1.08-.35-1.65-.41-1.07-.08-1.49-.08-.91.03-1.47.08-1.11.19-1.64.41-.97.55-1.34,1.01-.55,1.08-.55,1.88v10.5c.51-.13.97-.36,1.38-.7s.75-.74,1.04-1.2.5-.99.67-1.58.25-1.21.27-1.87l-2.13-.22v-4.04h7.09c.11.67.2,1.34.29,2s.12,1.34.12,2.03c0,1.8-.25,3.37-.75,4.72s-1.22,2.46-2.15,3.34-2.08,1.55-3.44,1.99-2.89.67-4.6.67c-.6,0-1.3-.04-2.1-.12s-1.72-.22-2.75-.42v-15.38c0-1.44.3-2.66.9-3.68s1.44-1.85,2.51-2.51,2.35-1.14,3.82-1.46,3.08-.48,4.83-.48Z"/><path class="cls-3" d="m182.68,42.79v4.96h-21.68v-4.96h21.68Z"/><path class="cls-3" d="m213.17,69.59v4.39h-4.34c-.73,0-1.45-.09-2.17-.27s-1.36-.47-1.92-.86-1.02-.9-1.36-1.54-.52-1.42-.52-2.35v-16.66l-4.06-2.84v-1.15c0-1.2.24-2.21.72-3.04s1.1-1.5,1.87-2.02,1.62-.89,2.56-1.12,1.87-.34,2.78-.34c.82,0,1.69.12,2.62.37s1.78.64,2.56,1.19,1.43,1.26,1.95,2.15.78,1.98.78,3.27h-6.08c-.04-.58-.12-1.03-.25-1.35s-.27-.55-.42-.71-.32-.25-.49-.27-.32-.04-.45-.04c-.44,0-.76.14-.97.41s-.31.62-.31,1.04v.41l4.39,3.03v16.69c0,.38.04.67.12.87s.18.35.29.44.23.15.35.16.24.03.33.03l2.02.11Z"/><path class="cls-3" d="m227.38,50.15c1.73,0,3.22.18,4.49.53s2.34.84,3.23,1.45,1.61,1.31,2.17,2.11.99,1.65,1.31,2.54.54,1.8.65,2.71.18,1.8.18,2.66-.06,1.75-.18,2.67-.34,1.84-.65,2.73-.75,1.74-1.31,2.55-1.28,1.52-2.17,2.13-1.97,1.09-3.23,1.45-2.76.53-4.49.53c-1.6,0-3.29-.13-5.07-.38s-3.5-.56-5.15-.93v-13.14h9.95v4.06l-3.08.19v4.83c1,.11,1.96.16,2.89.16,1.98,0,3.39-.58,4.21-1.73s1.24-2.9,1.24-5.22c0-1.15-.1-2.13-.3-2.95s-.52-1.48-.95-1.99-1-.88-1.69-1.12-1.53-.35-2.51-.35c-1.2,0-2.66.13-4.39.38s-3.52.56-5.37.93v-5.48c1.65-.36,3.37-.67,5.15-.93s3.47-.38,5.07-.38Z"/><path class="cls-3" d="m265.4,73.99h-7.06v-10.47c-.55.09-1.1.19-1.66.29s-1.11.2-1.65.29-1.03.18-1.49.26-.85.16-1.17.23c-.65.13-1.24.39-1.75.79s-.76,1-.76,1.8.29,1.36.87,1.64,1.38.41,2.4.41h2.62v4.77h-3.49c-3.38,0-5.87-.58-7.46-1.73s-2.39-3.01-2.39-5.58c0-1,.21-1.91.64-2.73s1.02-1.53,1.79-2.14,1.68-1.12,2.75-1.53,2.26-.71,3.57-.91c1-.15,2.14-.3,3.41-.46s2.52-.32,3.74-.46c-.04-.71-.16-1.25-.38-1.64s-.53-.66-.94-.83-.92-.27-1.53-.29-1.33-.03-2.17-.03c-1.25,0-2.67.13-4.24.4s-3.35.6-5.33,1.02v-5.51c1.75-.4,3.44-.74,5.09-1.01s3.3-.41,4.98-.41c2.53,0,4.55.26,6.08.78s2.7,1.21,3.52,2.09,1.36,1.88,1.62,3.01.4,2.32.4,3.56v14.4Z"/><path class="cls-3" d="m282.36,50.15c1.75,0,3.36.16,4.84.48s2.76.8,3.83,1.46,1.91,1.49,2.51,2.51.9,2.25.9,3.68v15.71h-7.06v-15.44c0-.8-.18-1.43-.55-1.88s-.81-.79-1.34-1.01-1.08-.35-1.65-.41-1.07-.08-1.49-.08-.91.03-1.47.08-1.11.19-1.64.41-.97.55-1.34,1.01-.55,1.08-.55,1.88v10.5c.51-.13.97-.36,1.38-.7s.75-.74,1.04-1.2.5-.99.67-1.58.25-1.21.27-1.87l-2.13-.22v-4.04h7.09c.11.67.2,1.34.29,2s.12,1.34.12,2.03c0,1.8-.25,3.37-.75,4.72s-1.22,2.46-2.15,3.34-2.08,1.55-3.44,1.99-2.89.67-4.6.67c-.6,0-1.3-.04-2.1-.12s-1.72-.22-2.75-.42v-15.38c0-1.44.3-2.66.9-3.68s1.44-1.85,2.51-2.51,2.35-1.14,3.82-1.46,3.08-.48,4.83-.48Z"/><path class="cls-3" d="m293.08,39.16v1.36l-2.65,3.11h1.85v4.12h-9.79v-3.22l4.34-5.37h6.25Z"/><path class="cls-3" d="m333.93,54.84c.36.76.61,1.52.75,2.28s.2,1.58.2,2.47v14.4h-7.06v-10.47c-.55.09-1.1.19-1.66.29s-1.11.2-1.65.29-1.03.18-1.49.26-.85.16-1.17.23c-.65.13-1.24.39-1.75.79s-.76,1-.76,1.8.29,1.36.87,1.64,1.38.41,2.4.41h2.62v4.77h-3.49c-3.38,0-5.87-.58-7.46-1.73s-2.39-3.01-2.39-5.58c0-1,.21-1.91.64-2.73s1.02-1.53,1.79-2.14,1.68-1.12,2.75-1.53,2.26-.71,3.57-.91c1-.15,2.14-.3,3.41-.46s2.52-.32,3.74-.46c-.04-.71-.16-1.25-.38-1.64s-.53-.66-.94-.83-.92-.27-1.53-.29-1.33-.03-2.17-.03c-1.25,0-2.67.13-4.24.4s-3.35.6-5.33,1.02v-5.51c1.75-.4,3.44-.74,5.09-1.01s3.3-.41,4.98-.41c1.47,0,2.76.1,3.87.29s2.07.47,2.89.83c.16-.29.27-.65.31-1.08s.07-.94.07-1.54h6.52v1.94c0,.93-.27,1.75-.8,2.48s-1.24,1.31-2.11,1.75l-.08.03Z"/><path class="cls-3" d="m354.52,50.34h7.06v15.93c0,1.44-.31,2.66-.93,3.67s-1.44,1.83-2.47,2.45-2.21,1.08-3.55,1.36-2.72.42-4.16.42h-.11c-1.6,0-3.08-.15-4.45-.45s-2.54-.77-3.53-1.42-1.76-1.48-2.32-2.5-.83-2.25-.83-3.68.27-2.57.82-3.45,1.35-1.59,2.43-2.11c-.8-.62-1.43-1.37-1.88-2.26s-.68-2.09-.68-3.6v-4.36h10.17v4.04l-3.11.22c0,.87.07,1.58.22,2.11s.36.95.65,1.24.65.48,1.08.57.93.14,1.51.14h1.66v4.23h-2.59c-.51.02-.95.07-1.32.16s-.68.25-.93.46-.43.52-.55.91-.18.89-.18,1.49c0,.8.16,1.42.48,1.87s.69.77,1.1.97.85.32,1.28.35.77.05,1.01.05.59-.03,1.05-.08.92-.2,1.36-.42.84-.57,1.17-1.02.5-1.08.5-1.88v-15.41Z"/><path class="cls-3" d="m383.49,73.99h-7.06v-14.94c0-.76-.11-1.38-.33-1.85s-.5-.84-.83-1.1-.72-.44-1.15-.53-.86-.14-1.3-.14c-1.24,0-2.47.1-3.71.31s-2.47.41-3.71.61v-5.13c1.35-.31,2.68-.56,4.01-.76s2.61-.3,3.85-.3c1.95,0,3.57.29,4.88.87s2.36,1.32,3.15,2.22,1.35,1.9,1.69,2.99.5,2.15.5,3.16v14.59Z"/><path class="cls-3" d="m411.58,70.09c-.53,1.13-1.25,2-2.17,2.6s-2.01,1.01-3.27,1.21-2.63.3-4.1.3c-.65,0-1.29-.07-1.9-.22s-1.18-.36-1.72-.65-1.01-.65-1.43-1.08-.76-.91-1.04-1.46c-.22.65-.5,1.19-.83,1.6s-.71.74-1.13.98-.86.41-1.34.5-.95.14-1.42.14h-3.93v-4.04l1.77-.11c.13,0,.27-.03.42-.1s.3-.16.44-.3.25-.33.33-.59.12-.57.12-.95v-13.34l-3.08-.22v-4.04h10.15v9.82c0,.55.03,1.15.08,1.81s.15,1.33.29,2,.32,1.32.56,1.95.53,1.18.89,1.66.78.87,1.28,1.16,1.08.44,1.73.44c.24,0,.53-.02.87-.07s.68-.19,1-.42.59-.6.82-1.08.34-1.15.34-2v-15.27h7.06v15.27c0,1.85-.26,3.35-.79,4.47Z"/><path class="cls-3" d="m457.88,50.34v15.27c0,1.53-.13,2.84-.4,3.93s-.7,1.98-1.31,2.67-1.41,1.2-2.41,1.51-2.23.48-3.68.48c-1.09,0-2.05-.15-2.86-.44s-1.52-.72-2.1-1.28c-1.15,1.15-2.8,1.72-4.96,1.72-1.45,0-2.68-.16-3.67-.48s-1.79-.82-2.4-1.51-1.05-1.58-1.31-2.67-.4-2.4-.4-3.93v-11.02l-3.11-.22v-4.04h10.17v15.27c0,.84.05,1.5.14,1.98s.2.84.33,1.08.26.38.4.44.26.08.37.08c.29,0,.55-.07.76-.22s.4-.5.55-1.05.25-1.39.33-2.5.11-2.63.11-4.55v-6.46h5.43v6.44c0,1.93.04,3.45.11,4.55s.18,1.95.33,2.51.33.92.55,1.06.47.22.76.22c.11,0,.23-.03.37-.08s.27-.2.4-.44.24-.6.33-1.08.14-1.14.14-1.98v-15.27h7.06Z"/><path class="cls-3" d="m484.69,73.99h-7.06v-10.47c-.55.09-1.1.19-1.66.29s-1.11.2-1.65.29-1.03.18-1.49.26-.85.16-1.17.23c-.65.13-1.24.39-1.75.79s-.76,1-.76,1.8.29,1.36.87,1.64,1.38.41,2.4.41h2.62v4.77h-3.49c-3.38,0-5.87-.58-7.46-1.73s-2.39-3.01-2.39-5.58c0-1,.21-1.91.64-2.73s1.02-1.53,1.79-2.14,1.68-1.12,2.75-1.53,2.26-.71,3.57-.91c1-.15,2.14-.3,3.41-.46s2.52-.32,3.74-.46c-.04-.71-.16-1.25-.38-1.64s-.53-.66-.94-.83-.92-.27-1.53-.29-1.33-.03-2.17-.03c-1.25,0-2.67.13-4.24.4s-3.35.6-5.33,1.02v-5.51c1.75-.4,3.44-.74,5.09-1.01s3.3-.41,4.98-.41c2.53,0,4.55.26,6.08.78s2.7,1.21,3.52,2.09,1.36,1.88,1.62,3.01.4,2.32.4,3.56v14.4Z"/><path class="cls-3" d="m506.59,73.99h-7.06v-14.94c0-.76-.11-1.38-.33-1.85s-.5-.84-.83-1.1-.72-.44-1.15-.53-.86-.14-1.3-.14c-1.24,0-2.47.1-3.71.31s-2.47.41-3.71.61v-5.13c1.35-.31,2.68-.56,4.01-.76s2.61-.3,3.85-.3c1.95,0,3.57.29,4.88.87s2.36,1.32,3.15,2.22,1.35,1.9,1.69,2.99.5,2.15.5,3.16v14.59Z"/><path class="cls-3" d="m521.92,69.29c.36,0,.74-.05,1.12-.14s.73-.27,1.04-.55.56-.65.75-1.13.29-1.11.29-1.9v-3.33c0-.65-.07-1.2-.2-1.65s-.32-.81-.56-1.1-.51-.5-.83-.63-.67-.21-1.05-.25v-4.34c.67-.07,1.21-.19,1.61-.35s.7-.4.91-.71.32-.7.34-1.17-.02-1.05-.11-1.72h6.95c.2,1.33.07,2.48-.4,3.45s-1.3,1.85-2.5,2.63c.82.6,1.5,1.4,2.05,2.4s.83,2.19.85,3.57v3.16c0,1.4-.17,2.64-.52,3.71s-.91,1.98-1.7,2.71-1.85,1.29-3.16,1.66-2.94.56-4.87.56-3.57-.19-4.88-.56-2.36-.93-3.16-1.66-1.37-1.64-1.72-2.71-.52-2.31-.52-3.71v-1.83c0-.44.06-.97.18-1.6s.34-1.34.65-2.13.75-1.65,1.31-2.56,1.27-1.89,2.14-2.9l-2.56.98-3.22-1.61v-4.39l3.22,1.66,3.11-.85h4.77v2.78c0,1.24-.13,2.29-.4,3.15s-.55,1.67-.87,2.41-.61,1.49-.87,2.24-.4,1.61-.4,2.59v2.07c0,.78.1,1.41.3,1.9s.45.86.76,1.13.65.45,1.04.55.75.14,1.12.14Z"/><path class="cls-3" d="m532.2,47.75h-7.06v-7.58h7.06v7.58Z"/><path class="cls-3" d="m554.1,73.99h-7.06v-14.94c0-.76-.11-1.38-.33-1.85s-.5-.84-.83-1.1-.72-.44-1.15-.53-.86-.14-1.3-.14c-1.24,0-2.47.1-3.71.31s-2.47.41-3.71.61v-5.13c1.35-.31,2.68-.56,4.01-.76s2.61-.3,3.85-.3c1.95,0,3.57.29,4.88.87s2.36,1.32,3.15,2.22,1.35,1.9,1.69,2.99.5,2.15.5,3.16v14.59Z"/></g><g class="cls-8"><path class="cls-3" d="m76.68,146.54h-21.29v-31.56c-1.64.27-3.32.56-5.01.86-1.7.3-3.36.59-4.97.86-1.62.27-3.11.53-4.48.78-1.37.25-2.55.48-3.53.7-1.97.38-3.73,1.18-5.26,2.38-1.53,1.21-2.3,3.01-2.3,5.42s.88,4.11,2.63,4.93c1.75.82,4.16,1.23,7.23,1.23h7.89v14.38h-10.52c-10.19,0-17.69-1.74-22.48-5.22-4.8-3.48-7.19-9.08-7.19-16.81,0-3.01.64-5.75,1.93-8.22,1.29-2.47,3.08-4.62,5.38-6.45,2.3-1.83,5.07-3.37,8.3-4.6,3.23-1.23,6.82-2.15,10.77-2.75,3.01-.44,6.44-.9,10.27-1.4,3.84-.49,7.59-.96,11.26-1.4-.11-2.14-.49-3.78-1.15-4.93s-1.6-1.99-2.84-2.51c-1.23-.52-2.77-.81-4.6-.86-1.84-.05-4.01-.08-6.53-.08-3.78,0-8.04.4-12.78,1.19-4.74.8-10.1,1.82-16.07,3.08v-16.6c5.26-1.2,10.37-2.22,15.33-3.04,4.96-.82,9.96-1.23,15-1.23,7.62,0,13.73.78,18.33,2.34s8.14,3.66,10.6,6.29,4.1,5.66,4.89,9.08c.79,3.43,1.19,7,1.19,10.73v43.4Z"/><path class="cls-3" d="m105.99,102.99c3.16,0,5.89.32,8.2.97,2.31.65,4.28,1.53,5.91,2.64,1.63,1.11,2.95,2.4,3.96,3.86,1.01,1.46,1.81,3.01,2.39,4.63.58,1.63.98,3.28,1.2,4.96.22,1.68.32,3.3.32,4.86s-.11,3.19-.32,4.88c-.22,1.69-.62,3.36-1.2,4.98-.58,1.63-1.38,3.18-2.39,4.66-1.01,1.48-2.33,2.77-3.96,3.89-1.63,1.11-3.6,1.99-5.91,2.64-2.31.65-5.04.97-8.2.97-2.92,0-6.01-.23-9.27-.7-3.26-.46-6.4-1.03-9.42-1.69v-24.02h18.19v7.43l-5.63.35v8.82c1.83.2,3.59.3,5.28.3,3.62,0,6.19-1.05,7.7-3.16,1.51-2.11,2.27-5.29,2.27-9.54,0-2.09-.18-3.89-.55-5.38-.37-1.49-.95-2.71-1.74-3.64-.8-.93-1.83-1.61-3.09-2.04-1.26-.43-2.79-.65-4.59-.65-2.19,0-4.87.23-8.02.7-3.16.47-6.43,1.03-9.82,1.69v-10.02c3.02-.66,6.16-1.23,9.42-1.69,3.26-.46,6.35-.7,9.27-.7Z"/><path class="cls-3" d="m162.36,103.33h12.91v29.1c0,2.62-.57,4.86-1.69,6.7-1.13,1.84-2.63,3.34-4.51,4.49-1.88,1.15-4.04,1.98-6.48,2.49-2.44.51-4.98.77-7.6.77h-.2c-2.92,0-5.63-.27-8.12-.82s-4.64-1.41-6.45-2.59c-1.81-1.18-3.22-2.7-4.24-4.56-1.01-1.86-1.52-4.1-1.52-6.73s.5-4.69,1.49-6.3c1-1.61,2.47-2.9,4.44-3.86-1.46-1.13-2.61-2.51-3.44-4.14-.83-1.63-1.25-3.82-1.25-6.58v-7.97h18.59v7.38l-5.68.4c0,1.59.13,2.88.4,3.86.27.98.66,1.74,1.2,2.27.53.53,1.19.88,1.97,1.05.78.17,1.7.25,2.77.25h3.04v7.72h-4.73c-.93.03-1.74.13-2.42.3-.68.17-1.25.45-1.69.85-.45.4-.78.96-1,1.67-.22.71-.32,1.62-.32,2.72,0,1.46.29,2.6.87,3.41.58.81,1.25,1.4,2.02,1.77.76.37,1.54.58,2.34.65.8.07,1.41.1,1.84.1s1.07-.05,1.92-.15c.85-.1,1.68-.36,2.49-.77.81-.42,1.53-1.04,2.14-1.87.61-.83.92-1.98.92-3.44v-28.16Z"/><path class="cls-3" d="m204.72,102.99c3.49,0,6.55.37,9.19,1.1s4.85,1.78,6.63,3.14c1.78,1.36,3.11,3.01,4.01,4.93.9,1.93,1.35,4.07,1.35,6.43v27.96h-12.91v-27.01c0-1.63-.34-2.95-1.02-3.96-.68-1.01-1.47-1.79-2.37-2.32-.9-.53-1.8-.89-2.72-1.07-.91-.18-1.62-.27-2.12-.27-.76,0-1.63.08-2.59.25-.96.17-1.92.5-2.87,1-.95.5-1.8,1.18-2.57,2.04-.76.86-1.31,1.98-1.64,3.34l4.09,3.69v24.32h-12.91v-23.37l-4.54-4.34c.93-3.36,2.17-6.07,3.71-8.15,1.54-2.08,3.31-3.69,5.31-4.83,1.99-1.15,4.17-1.91,6.53-2.29,2.36-.38,4.83-.57,7.43-.57Z"/><path class="cls-3" d="m269.35,132.79c0,2.39-.43,4.48-1.3,6.25-.86,1.78-2.08,3.25-3.64,4.41-1.56,1.16-3.44,2.04-5.63,2.62-2.19.58-4.6.87-7.23.87s-5.37-.23-8.45-.7c-3.07-.46-6.14-1.16-9.19-2.09v-10.07c1.43.33,2.92.67,4.49,1,1.56.33,3.11.63,4.66.9,1.54.27,3.02.48,4.44.65,1.41.17,2.67.25,3.76.25,1.69,0,2.98-.25,3.86-.75.88-.5,1.35-1.3,1.42-2.39v-.15c-.03-1.03-.6-1.84-1.69-2.44-1.1-.6-2.69-1.21-4.78-1.84-2.53-.83-4.82-1.64-6.88-2.42s-3.81-1.67-5.26-2.67-2.57-2.16-3.36-3.49c-.8-1.33-1.2-2.94-1.2-4.83s.3-3.42.9-4.78c.6-1.36,1.38-2.52,2.34-3.46s2.07-1.73,3.31-2.34c1.25-.61,2.52-1.09,3.84-1.42,1.31-.33,2.6-.56,3.86-.7,1.26-.13,2.39-.2,3.39-.2,2.19,0,4.77.22,7.72.67,2.96.45,5.88,1.15,8.77,2.12v10.02c-3.12-1.03-6.06-1.81-8.8-2.34-2.74-.53-5.11-.8-7.1-.8s-3.28.22-4.16.67c-.88.45-1.35,1.09-1.42,1.92.03.8.44,1.39,1.22,1.77.78.38,1.79.77,3.01,1.17,2.52.83,4.94,1.64,7.25,2.44,2.31.8,4.34,1.74,6.11,2.82,1.76,1.08,3.16,2.36,4.19,3.84,1.03,1.48,1.54,3.31,1.54,5.51Z"/><path class="cls-3" d="m298.81,112.5v8.52h-22.23v-13.41h11.26l.6,4.49,10.37.4Zm0,23.22v8.47h-22.23v-13.31h11.26l.6,4.49,10.37.35Z"/><path class="cls-3" d="m337.48,102.99c2.92,0,5.21.34,6.85,1.02,1.64.68,2.87,1.56,3.69,2.64.81,1.08,1.32,2.3,1.52,3.66.2,1.36.3,2.72.3,4.09v32.14h-12.91v-29.25c0-.1,0-.32-.02-.67s-.07-.66-.17-.95c-.1-.28-.25-.41-.45-.4-.2.02-.47.36-.8,1.02l-13.41,30.25h-12.41v-35.43l-5.63-.4v-7.38h18.34v9.87c0,1.03-.07,2.27-.2,3.71-.13,1.45-.37,3.2-.72,5.26-.35,2.06-.87,4.65-1.57,7.77.53-1.76.98-3.26,1.35-4.49.37-1.23.7-2.32,1-3.26.3-.95.59-1.81.87-2.59.28-.78.62-1.6,1.02-2.47.9-1.99,1.68-3.85,2.34-5.56.66-1.71,1.45-3.21,2.34-4.49.9-1.28,2.02-2.28,3.36-3.01s3.11-1.1,5.31-1.1Z"/><path class="cls-3" d="m369.67,117.19l6.33,20.28h.95c1.1,0,2.04-.34,2.84-1.02.8-.68,1.46-1.61,1.99-2.79.53-1.18.92-2.54,1.17-4.09s.37-3.2.37-4.96c0-2.06-.17-3.85-.52-5.36-.35-1.51-1-2.76-1.94-3.74-.95-.98-2.24-1.71-3.89-2.19-1.64-.48-3.76-.74-6.35-.77v-9.47c.1,0,.34,0,.72-.02.38-.02.78-.02,1.2-.02s.8,0,1.17-.02c.37-.02.6-.02.7-.02,3.32,0,6.17.32,8.55.97,2.37.65,4.37,1.53,5.98,2.64,1.61,1.11,2.89,2.4,3.84,3.86.95,1.46,1.68,3,2.19,4.61.51,1.61.85,3.26,1,4.93.15,1.68.22,3.28.22,4.81s-.1,3.18-.3,4.86c-.2,1.68-.59,3.32-1.17,4.93-.58,1.61-1.38,3.14-2.39,4.59s-2.33,2.72-3.96,3.81c-1.63,1.1-3.59,1.96-5.88,2.59-2.29.63-5.02.95-8.17.95h-8.12l-9.87-29.35h13.36Z"/><path class="cls-3" d="m422.35,102.99c3.16,0,5.89.32,8.2.97s4.28,1.53,5.91,2.64c1.63,1.11,2.95,2.4,3.96,3.86,1.01,1.46,1.81,3.01,2.39,4.63.58,1.63.98,3.28,1.2,4.96.22,1.68.32,3.3.32,4.86s-.11,3.19-.32,4.88-.61,3.36-1.2,4.98c-.58,1.63-1.38,3.18-2.39,4.66-1.01,1.48-2.34,2.77-3.96,3.89-1.63,1.11-3.6,1.99-5.91,2.64-2.31.65-5.04.97-8.2.97-2.92,0-6.01-.23-9.27-.7-3.26-.46-6.4-1.03-9.42-1.69v-24.02h18.19v7.43l-5.63.35v8.82c1.83.2,3.59.3,5.28.3,3.62,0,6.19-1.05,7.7-3.16,1.51-2.11,2.27-5.29,2.27-9.54,0-2.09-.18-3.89-.55-5.38-.37-1.49-.95-2.71-1.74-3.64-.8-.93-1.83-1.61-3.09-2.04-1.26-.43-2.79-.65-4.59-.65-2.19,0-4.87.23-8.02.7-3.16.47-6.43,1.03-9.82,1.69v-10.02c3.02-.66,6.16-1.23,9.42-1.69,3.26-.46,6.35-.7,9.27-.7Z"/><path class="cls-3" d="m470.49,102.99c3.16,0,5.89.32,8.2.97s4.28,1.53,5.91,2.64c1.63,1.11,2.95,2.4,3.96,3.86,1.01,1.46,1.81,3.01,2.39,4.63.58,1.63.98,3.28,1.2,4.96.22,1.68.32,3.3.32,4.86s-.11,3.19-.32,4.88-.61,3.36-1.2,4.98c-.58,1.63-1.38,3.18-2.39,4.66-1.01,1.48-2.34,2.77-3.96,3.89-1.63,1.11-3.6,1.99-5.91,2.64-2.31.65-5.04.97-8.2.97-2.92,0-6.01-.23-9.27-.7-3.26-.46-6.4-1.03-9.42-1.69v-24.02h18.19v7.43l-5.63.35v8.82c1.83.2,3.59.3,5.28.3,3.62,0,6.19-1.05,7.7-3.16,1.51-2.11,2.27-5.29,2.27-9.54,0-2.09-.18-3.89-.55-5.38-.37-1.49-.95-2.71-1.74-3.64-.8-.93-1.83-1.61-3.09-2.04-1.26-.43-2.79-.65-4.59-.65-2.19,0-4.87.23-8.02.7-3.16.47-6.43,1.03-9.82,1.69v-10.02c3.02-.66,6.16-1.23,9.42-1.69,3.26-.46,6.35-.7,9.27-.7Z"/><path class="cls-3" d="m520.73,137.77c1.79,0,3.26-.5,4.39-1.49s2-2.24,2.62-3.74c.61-1.49,1.03-3.11,1.25-4.86.22-1.74.32-3.38.32-4.91v-19.44h12.91l.05,32.14c0,.7.07,1.28.22,1.74.15.47.34.82.57,1.07.23.25.48.43.75.55.27.12.53.17.8.17l2.94.2v7.38h-6.88c-.86,0-1.73-.08-2.59-.25-.86-.17-1.68-.47-2.44-.92-.76-.45-1.45-1.05-2.07-1.79-.62-.75-1.12-1.72-1.52-2.92-.96,2.03-2.42,3.57-4.39,4.64-1.96,1.06-4.12,1.59-6.48,1.59-2.69,0-5.17-.18-7.45-.55-2.28-.37-4.24-1.1-5.88-2.22-1.64-1.11-2.93-2.7-3.86-4.76-.93-2.06-1.4-4.78-1.4-8.17v-20.13l-5.63-.4v-7.38h18.54v27.91c0,1.56.19,2.78.57,3.66.38.88.85,1.54,1.4,1.97.55.43,1.12.69,1.72.77.6.08,1.11.12,1.55.12Z"/><path class="cls-3" d="m574.55,138.52v8.02h-7.92c-1.33,0-2.65-.17-3.96-.5-1.31-.33-2.48-.86-3.51-1.57-1.03-.71-1.86-1.65-2.49-2.82-.63-1.16-.95-2.59-.95-4.29v-25.96c0-1.56.17-3.03.52-4.41.35-1.38.82-2.65,1.42-3.81s1.3-2.22,2.12-3.16c.81-.95,1.67-1.77,2.57-2.47l-4.19,1-9.12-2.39v-8.42l8.92,2.29,7.87-1.59h6.68l2.29,5.73c-.63.43-1.3,1.03-1.99,1.79-.7.76-1.34,1.64-1.92,2.62-.58.98-1.06,2.04-1.45,3.16-.38,1.13-.57,2.29-.57,3.49v30.35c0,.7.07,1.23.22,1.59.15.37.32.63.52.8.2.17.41.27.65.3.23.03.43.05.6.05l3.69.2Z"/><path class="cls-3" d="m621.84,146.54h-12.91v-19.14c-1,.17-2.01.34-3.04.52-1.03.18-2.04.36-3.01.52-.98.17-1.89.32-2.72.47-.83.15-1.55.29-2.14.42-1.2.23-2.26.71-3.19,1.44-.93.73-1.4,1.83-1.4,3.29s.53,2.49,1.59,2.99,2.52.75,4.39.75h4.78v8.72h-6.38c-6.18,0-10.72-1.05-13.63-3.16-2.91-2.11-4.36-5.51-4.36-10.19,0-1.83.39-3.49,1.17-4.98.78-1.49,1.87-2.8,3.26-3.91s3.07-2.04,5.03-2.79c1.96-.75,4.14-1.3,6.53-1.67,1.83-.27,3.9-.55,6.23-.85,2.32-.3,4.6-.58,6.83-.85-.07-1.3-.3-2.29-.7-2.99-.4-.7-.97-1.2-1.72-1.52-.75-.32-1.68-.49-2.79-.52-1.11-.03-2.43-.05-3.96-.05-2.29,0-4.88.24-7.75.72-2.87.48-6.12,1.11-9.74,1.87v-10.07c3.19-.73,6.29-1.35,9.29-1.84,3.01-.5,6.04-.75,9.1-.75,4.62,0,8.32.47,11.11,1.42,2.79.95,4.93,2.22,6.43,3.81s2.48,3.43,2.96,5.51c.48,2.08.72,4.24.72,6.5v26.31Z"/><path class="cls-3" d="m651.59,137.77c1.79,0,3.26-.5,4.39-1.49s2-2.24,2.62-3.74c.61-1.49,1.03-3.11,1.25-4.86.22-1.74.32-3.38.32-4.91v-19.44h12.91l.05,32.14c0,.7.07,1.28.22,1.74.15.47.34.82.57,1.07.23.25.48.43.75.55.27.12.53.17.8.17l2.94.2v7.38h-6.88c-.86,0-1.73-.08-2.59-.25-.86-.17-1.68-.47-2.44-.92-.76-.45-1.45-1.05-2.07-1.79-.62-.75-1.12-1.72-1.52-2.92-.96,2.03-2.42,3.57-4.39,4.64-1.96,1.06-4.12,1.59-6.48,1.59-2.69,0-5.17-.18-7.45-.55-2.28-.37-4.24-1.1-5.88-2.22-1.64-1.11-2.93-2.7-3.86-4.76-.93-2.06-1.4-4.78-1.4-8.17v-20.13l-5.63-.4v-7.38h18.54v27.91c0,1.56.19,2.78.57,3.66.38.88.85,1.54,1.4,1.97.55.43,1.12.69,1.72.77.6.08,1.11.12,1.55.12Z"/><path class="cls-3" d="m672.13,82.9v2.49l-4.83,5.68h3.39v7.53h-17.89v-5.88l7.92-9.82h11.41Z"/></g><path id="Logo" class="cls-4" d="m97.98,187.73c-1.63-1.69-3.75-2.39-4.64-1.46.89-.92.29-3.04-1.33-4.73l-2.44-2.52-2.44,2.52c-1.63,1.69-2.3,3.88-1.41,4.81-.89-.93-2.93-.31-4.56,1.38l-2.44,2.52,2.44,2.53c1.63,1.68,3.74,2.39,4.64,1.46-.89.92-.29,3.04,1.34,4.72l2.44,2.53,2.44-2.53c1.63-1.68,2.3-3.88,1.41-4.81.89.92,2.93.3,4.56-1.38l2.44-2.53-2.44-2.52Zm-8.41,5.36c-1.56,0-2.83-1.27-2.83-2.83s1.27-2.83,2.83-2.83,2.83,1.27,2.83,2.83-1.27,2.83-2.83,2.83Z"/><g class="cls-1"><path class="cls-3" d="m671.77,178.4c-3.54,4.28-10.09,5.73-15.11,3.35-2.9-1.38-5.17-3.81-7.93-5.45-9.61-5.71-22.27.14-24.96,10.84-1.54,6.13,1.27,13.34,6.96,16.06.03.01.05.03.08.04-.25-3.36-.5-6.78.22-10.08.73-3.29,2.59-6.5,5.59-8.05-1.73,3.58-3.28,7.56-2.46,11.45.48,2.27,1.76,4.33,3.42,5.95,3.43,3.34,8.42,4.71,13.2,4.22,1.07-.11,2.14-.29,3.17-.59,5.62-1.65,10.28-5.87,13.21-10.94.37-.63.71-1.28,1.02-1.94,2.22-4.61,3.26-9.75,3.57-14.87Z"/></g><g class="cls-7"><path class="cls-3" d="m731.99,156.28c.12-.62.11-1.29-.06-2.11-1.19-5.78-.42-11.2,4.13-15.44.73-.68,2.28-.87,3.36-.7,2.59.42,5.1,1.34,7.69,1.79,10.61,1.83,21.54-11.08,16.14-21.7-1.85-3.65-2.81-7.83-3.66-11.88-.88-4.18.61-7.73,4.03-10.52,4.24-3.46,5.24-7.5,3.51-12.83-2.18,3.96-2.74,4.19-7.74,6.8-10.75,5.63-21.44,11.41-22.09,26.19-1.21-2.02-2.41-4.03-3.71-6.2-7.75,6.24-14.43,13.5-16.97,23.67-2.96,11.88,1.48,21.88,8.07,31.18.08-.17.15-.36.23-.52,1.71-3.2,4.18-5.79,7.06-7.73Z"/><path class="cls-3" d="m737.52,189.83c3.46-6.27,5.89-13.14,8.51-19.84,2.55-6.52,6.36-9.19,13.29-8.67.36.03.71.04,1.82.1-1.27-1.1-1.95-1.81-2.75-2.34-7.85-5.21-18.23-4.62-25.72.43-2.89,1.95-5.35,4.53-7.06,7.73-.09.16-.15.35-.23.52-.64,1.41-1.01,3.13-.8,4.59,2.56,17.68-5.49,30.42-22.63,35.53-.08.02-.16.06-.24.08-1.8,2.82-4.22,5.21-7.02,6.68-.74.39-1.54.69-2.33,1.01,20.22.1,35.47-8.26,45.17-25.83Z"/><path class="cls-3" d="m703.2,205.18c11.24-3.59,18.77-13.49,19.32-25.46.39-8.58-2.45-16-7.44-22.72-5.43-7.31-7.06-15.39-5.3-24.25-.31-.24-.63-.49-.94-.73-3.25,3.56-6.96,6.81-9.66,10.75-5.57,8.12-4.48,16.85,2.4,23.89,1.63,1.67,3.29,3.36,5.14,4.77,7.37,5.65,6.55,18.14-1.35,23.5-.21.14-.42.3-.63.47.44,3.28-.16,6.68-1.54,9.78Z"/><path class="cls-3" d="m686.02,215.89c.83-.21,1.67-.39,2.45-.67,2.98-1.07,5.7-3.1,7.88-5.63.69-.8,1.31-1.65,1.87-2.54,1.81-2.88,2.87-6.16,2.9-9.47,0-.47.06-.94.02-1.41-.97.35-1.95.71-3.11,1.13,2.52-12.95-2.81-20.63-13.46-20.89.89,2.99,2.47,5.97,2.53,8.99.17,8.08-6.09,13.46-14.3,13.08-1.26-.06-3.2.11-3.71.9-2.87,4.43-6.39,8.04-11.37,10.23,7.48,6.3,19.03,8.62,28.28,6.3Z"/></g><g class="cls-6"><path class="cls-3" d="m116.75,180.3v17.65h8.43l.51,2.35v.55h-12.11v-20.56h3.17Z"/><path class="cls-3" d="m129.81,190.59c0-.72.05-1.48.16-2.28s.29-1.58.54-2.35.6-1.51,1.03-2.21.99-1.32,1.65-1.84,1.44-.94,2.34-1.26,1.95-.47,3.15-.47,2.25.16,3.16.47,1.69.73,2.34,1.26,1.2,1.14,1.64,1.84.78,1.44,1.04,2.21.44,1.55.54,2.35.15,1.56.15,2.28-.05,1.49-.16,2.29-.29,1.59-.55,2.36-.61,1.5-1.04,2.2-.99,1.31-1.65,1.84-1.45.95-2.35,1.27-1.96.47-3.16.47-2.25-.16-3.15-.47-1.68-.73-2.33-1.26-1.2-1.14-1.64-1.84-.78-1.44-1.03-2.21-.43-1.55-.53-2.35-.15-1.56-.15-2.3Zm14.42,0c0-1.15-.11-2.18-.33-3.1s-.56-1.7-1.01-2.35-1.03-1.15-1.73-1.49-1.52-.52-2.47-.52-1.76.17-2.45.52-1.27.85-1.73,1.49-.8,1.43-1.02,2.35-.34,1.95-.34,3.1.11,2.18.34,3.1.57,1.71,1.02,2.36,1.03,1.16,1.73,1.5,1.51.52,2.45.52,1.78-.17,2.47-.52,1.27-.85,1.73-1.5.79-1.44,1.01-2.36.33-1.95.33-3.1Z"/><path class="cls-3" d="m151.25,180.3h3.4l4.95,10.41,4.72-10.41h3.72l-6.87,13.81v6.75h-3.17v-6.75l-6.75-13.23v-.57Z"/><path class="cls-3" d="m185.73,180.3h3.17v20.56h-3.17v-20.56Zm15.18.47l-7.79,9.74,4.7,6.61c.22.3.41.54.57.71s.32.3.47.38.29.14.43.16.29.05.45.06l1.17.06v2.37h-1.31c-.49,0-.95-.02-1.37-.06s-.86-.18-1.3-.43-.91-.63-1.39-1.17-1.03-1.29-1.63-2.27l-4.07-6.05v-.82l7.42-9.76h3.64v.47Z"/><path class="cls-3" d="m221.52,198.48v2.37h-1.25c-.49,0-.94-.02-1.35-.06s-.81-.18-1.21-.43-.79-.63-1.2-1.17-.84-1.29-1.32-2.27l-2.7-5.2h-2.82v9.12h-3.19v-20.27c.6-.08,1.24-.16,1.92-.22s1.37-.12,2.07-.14,1.39-.04,2.08-.04,1.34.03,1.95.08c1.08.08,1.99.29,2.75.63s1.38.77,1.86,1.28.84,1.08,1.05,1.71.33,1.27.33,1.92v.29c0,.46-.06.98-.17,1.54s-.35,1.11-.7,1.63-.84.99-1.46,1.41-1.46.72-2.5.9l2.8,4.77c.35.64.68,1.14.97,1.5s.6.56.91.58l1.17.06Zm-7.18-9.39c.26,0,.56-.04.89-.11s.65-.22.96-.44.57-.52.78-.92.32-.91.32-1.53c0-.59-.1-1.06-.31-1.42s-.45-.64-.75-.85-.6-.35-.93-.43-.62-.14-.88-.16c-.29-.01-.63-.03-1.02-.04s-.81-.02-1.24-.02-.86.01-1.3.04-.83.07-1.19.12v5.77h4.66Z"/><path class="cls-3" d="m239.12,196.64h-8.61l-1.27,4.21h-3.37l6.38-20.49c1.72-.25,3.44-.25,5.15,0l6.38,20.49h-3.37l-1.29-4.21Zm-3.74-13.36c-.11-.03-.3-.04-.56-.04s-.45.01-.56.04l-3.01,10.76h7.16l-3.03-10.76Z"/><path class="cls-3" d="m253.32,180.18c1.45,0,2.82.02,4.11.06s2.41.1,3.33.16v2.86c-.35-.01-.78-.03-1.29-.05s-1.03-.04-1.56-.05-1.08-.03-1.63-.04-1.04-.03-1.47-.04v17.77h-3.19v-17.77c-.44.01-.92.03-1.45.04l-1.6.04c-.53.01-1.04.03-1.52.05s-.9.04-1.24.05v-2.86c.93-.07,2.05-.12,3.35-.16s2.69-.06,4.15-.06Z"/><path class="cls-3" d="m282.13,180.3v20.56h-3.17v-9.06h-9.65v9.06h-3.17v-20.56h3.17v8.86h9.65v-8.86h3.17Z"/><path class="cls-3" d="m288.11,190.59c0-.72.05-1.48.16-2.28s.29-1.58.54-2.35.6-1.51,1.03-2.21.99-1.32,1.65-1.84,1.44-.94,2.34-1.26,1.95-.47,3.15-.47,2.25.16,3.16.47,1.69.73,2.34,1.26,1.2,1.14,1.64,1.84.78,1.44,1.04,2.21.44,1.55.54,2.35.15,1.56.15,2.28-.05,1.49-.16,2.29-.29,1.59-.55,2.36-.61,1.5-1.04,2.2-.99,1.31-1.65,1.84-1.45.95-2.35,1.27-1.96.47-3.16.47-2.25-.16-3.15-.47-1.68-.73-2.33-1.26-1.2-1.14-1.64-1.84-.78-1.44-1.03-2.21-.43-1.55-.53-2.35-.15-1.56-.15-2.3Zm14.42,0c0-1.15-.11-2.18-.33-3.1s-.56-1.7-1.01-2.35-1.03-1.15-1.73-1.49-1.52-.52-2.47-.52-1.76.17-2.45.52-1.27.85-1.73,1.49-.8,1.43-1.02,2.35-.34,1.95-.34,3.1.11,2.18.34,3.1.57,1.71,1.02,2.36,1.03,1.16,1.73,1.5,1.51.52,2.45.52,1.78-.17,2.47-.52,1.27-.85,1.73-1.5.79-1.44,1.01-2.36.33-1.95.33-3.1Z"/><path class="cls-3" d="m315.01,200.86h-3.17v-20.56h2.37l10.9,14.62v-14.62h3.19v20.58h-2.39l-10.9-14.62v14.6Z"/><path class="cls-3" d="m350.1,189.16v10.96c-1.06.31-2.15.54-3.26.69s-2.29.21-3.55.21-2.44-.16-3.4-.47-1.77-.74-2.43-1.27-1.21-1.15-1.63-1.84-.74-1.43-.96-2.2-.38-1.55-.46-2.34-.12-1.55-.12-2.27.04-1.48.13-2.28.25-1.59.49-2.36.57-1.52.99-2.22.97-1.32,1.66-1.85,1.5-.95,2.46-1.27,2.1-.47,3.41-.47c1.1,0,2.25.09,3.43.27s2.26.42,3.24.72v2.86c-.49-.12-1-.24-1.53-.34s-1.07-.19-1.61-.27-1.07-.13-1.6-.17-1.03-.06-1.52-.06c-1.13,0-2.09.16-2.88.47s-1.44.78-1.93,1.39-.86,1.38-1.08,2.29-.34,1.97-.34,3.17.1,2.27.31,3.2.55,1.72,1.02,2.36,1.1,1.13,1.88,1.46,1.74.5,2.88.5c.49,0,1.03-.02,1.61-.06s1.14-.1,1.67-.18v-5.99h-3.09v-2.64h6.22Z"/><path class="cls-3" d="m368.4,200.86v-20.43c1.02-.08,2.09-.14,3.2-.18s2.23-.06,3.35-.06,2.24.02,3.34.06,2.17.1,3.19.18v2.9c-.76-.04-1.57-.09-2.42-.13s-1.71-.09-2.58-.11-1.72-.03-2.56-.02-1.63.06-2.36.14v5.97h7.57v2.64h-7.57v9.04h-3.17Z"/><path class="cls-3" d="m390.64,183.21v5.97h7.57v2.64h-7.57v6.14h9.47l.51,2.35v.55h-13.15v-20.43c1.02-.08,2.09-.14,3.2-.18s2.23-.06,3.35-.06,2.24.02,3.34.06,2.17.1,3.19.18v2.9c-.76-.04-1.57-.09-2.42-.13s-1.71-.09-2.58-.11-1.72-.03-2.56-.02-1.63.06-2.36.14Z"/><path class="cls-3" d="m409.45,185.41c0,.55.15,1.02.45,1.41s.7.75,1.19,1.05,1.05.59,1.68.85,1.27.52,1.92.8,1.3.57,1.92.9,1.19.71,1.68,1.16.89.96,1.19,1.55.45,1.3.45,2.12c0,1.08-.22,1.98-.66,2.72s-1.02,1.33-1.74,1.78-1.53.77-2.44.97-1.84.3-2.78.3c-.86,0-1.82-.08-2.89-.24s-2.08-.36-3.02-.6v-2.86c.38.1.81.19,1.28.29s.96.18,1.46.26,1.01.14,1.51.18,1,.07,1.47.07c.42,0,.9-.03,1.42-.08s1.02-.17,1.48-.36.86-.45,1.18-.8.48-.81.48-1.4c0-.49-.15-.92-.45-1.29s-.7-.7-1.19-1-1.05-.59-1.68-.86-1.27-.56-1.92-.85-1.3-.61-1.92-.96-1.19-.75-1.68-1.22-.89-1-1.19-1.61-.45-1.31-.45-2.12c0-.95.19-1.77.58-2.45s.91-1.24,1.55-1.68,1.38-.76,2.21-.96,1.68-.31,2.57-.31c.98,0,1.97.08,2.98.25s1.98.37,2.94.61v2.86c-1.19-.29-2.28-.5-3.29-.65s-1.98-.19-2.9-.12c-1.17.07-2.03.32-2.57.76s-.81.95-.81,1.53Z"/><path class="cls-3" d="m432.18,180.18c1.45,0,2.82.02,4.11.06s2.41.1,3.33.16v2.86c-.35-.01-.78-.03-1.29-.05s-1.03-.04-1.56-.05-1.08-.03-1.63-.04-1.04-.03-1.47-.04v17.77h-3.19v-17.77c-.44.01-.92.03-1.45.04l-1.6.04c-.53.01-1.04.03-1.52.05s-.9.04-1.24.05v-2.86c.93-.07,2.05-.12,3.35-.16s2.69-.06,4.15-.06Z"/><path class="cls-3" d="m445.6,200.86v-20.56h3.17v20.56h-3.17Z"/><path class="cls-3" d="m468.91,180.3h3.33l-5.81,20.56h-6.07l-5.81-20.56h3.33l4.85,17.53h1.31l4.87-17.53Z"/><path class="cls-3" d="m487.12,196.64h-8.61l-1.27,4.21h-3.37l6.38-20.49c1.72-.25,3.44-.25,5.15,0l6.38,20.49h-3.37l-1.29-4.21Zm-3.74-13.36c-.11-.03-.3-.04-.56-.04s-.45.01-.56.04l-3.01,10.76h7.16l-3.03-10.76Z"/><path class="cls-3" d="m500.32,180.3v17.65h8.43l.51,2.35v.55h-12.11v-20.56h3.17Z"/><path class="cls-3" d="m539.59,197.95v2.9h-13.05v-.86c.41-.44.93-1.02,1.55-1.76s1.29-1.55,1.98-2.44,1.39-1.83,2.09-2.82,1.32-1.95,1.87-2.88,1-1.81,1.35-2.64.52-1.52.52-2.1c0-.5-.12-.91-.36-1.21s-.55-.53-.92-.69-.79-.26-1.26-.31-.93-.07-1.39-.07c-.76,0-1.6.08-2.52.24s-1.76.34-2.54.54v-2.82c.82-.2,1.72-.4,2.71-.57s1.91-.27,2.77-.27,1.63.08,2.42.25,1.51.44,2.15.84,1.15.92,1.53,1.59.58,1.5.58,2.51c0,.41-.09.9-.26,1.48s-.41,1.21-.72,1.9-.67,1.42-1.1,2.19-.91,1.55-1.43,2.35-1.09,1.59-1.69,2.38-1.22,1.55-1.86,2.27h7.55Z"/><path class="cls-3" d="m552.01,180.18c.95,0,1.89.13,2.81.4s1.75.76,2.47,1.48,1.32,1.72,1.76,2.99.66,2.91.66,4.93v1.27c0,2.02-.22,3.66-.66,4.93s-1.03,2.26-1.76,2.99-1.55,1.22-2.47,1.48-1.86.4-2.81.4-1.87-.13-2.78-.4-1.74-.76-2.46-1.48-1.32-1.72-1.76-2.99-.66-2.91-.66-4.93v-1.27c0-2.02.22-3.66.66-4.93s1.03-2.26,1.76-2.99,1.55-1.22,2.46-1.48,1.84-.4,2.78-.4Zm4.64,9.8c0-1.13-.08-2.09-.24-2.88s-.36-1.45-.61-1.97-.54-.93-.87-1.23-.66-.51-1-.64-.67-.22-1-.26-.62-.05-.88-.05c-.27,0-.57.02-.9.05s-.66.12-1,.26-.67.35-1,.64-.62.7-.87,1.23-.46,1.18-.61,1.97-.24,1.75-.24,2.88v1.27c0,1.13.08,2.09.24,2.88s.36,1.45.61,1.96.54.92.87,1.22.66.51,1,.65.67.23,1,.27.63.05.9.05.55-.02.88-.05.66-.12,1-.27.67-.36,1-.65.62-.7.87-1.22.46-1.17.61-1.96.24-1.75.24-2.88v-1.27Z"/><path class="cls-3" d="m578.34,197.95v2.9h-13.05v-.86c.41-.44.93-1.02,1.55-1.76s1.29-1.55,1.98-2.44,1.39-1.83,2.09-2.82,1.32-1.95,1.87-2.88,1-1.81,1.35-2.64.52-1.52.52-2.1c0-.5-.12-.91-.36-1.21s-.55-.53-.92-.69-.79-.26-1.26-.31-.93-.07-1.39-.07c-.76,0-1.6.08-2.52.24s-1.76.34-2.54.54v-2.82c.82-.2,1.72-.4,2.71-.57s1.91-.27,2.77-.27,1.63.08,2.42.25,1.51.44,2.15.84,1.15.92,1.53,1.59.58,1.5.58,2.51c0,.41-.09.9-.26,1.48s-.41,1.21-.72,1.9-.67,1.42-1.1,2.19-.91,1.55-1.43,2.35-1.09,1.59-1.69,2.38-1.22,1.55-1.86,2.27h7.55Z"/><path class="cls-3" d="m595.6,182.26l-4.81,6.28c1.17.01,2.16.21,2.96.6s1.44.88,1.92,1.47.82,1.25,1.02,1.97.29,1.42.28,2.09c-.03,1.06-.25,1.99-.65,2.79s-.95,1.46-1.63,1.98-1.46.92-2.35,1.18-1.84.39-2.83.39c-.9,0-1.83-.08-2.79-.25s-1.89-.36-2.79-.59v-2.82c.82.19,1.68.37,2.59.54s1.79.26,2.65.26c.57,0,1.14-.05,1.71-.16s1.07-.3,1.52-.56.81-.62,1.09-1.06.42-1.01.42-1.69c0-.52-.06-1-.19-1.43s-.35-.81-.66-1.14-.74-.57-1.29-.75-1.23-.27-2.07-.27h-2.66v-1.96l4.36-6.05c-1.23-.03-2.44-.03-3.63-.02s-2.36.05-3.49.12v-2.8c1.85-.15,3.73-.21,5.61-.19s3.79.09,5.72.21v1.86Z"/></g></g></g></svg>