<?xml version="1.0" encoding="UTF-8"?><svg id="Layer_2" xmlns="http://www.w3.org/2000/svg" xmlns:xlink="http://www.w3.org/1999/xlink" viewBox="0 0 653.61 161.65"><defs><style>.cls-1{filter:url(#drop-shadow-4);}.cls-2{filter:url(#drop-shadow-1);}.cls-3{filter:url(#drop-shadow-6);}.cls-4,.cls-5{fill:#fff;stroke-width:0px;}.cls-6{filter:url(#drop-shadow-5);}.cls-7{filter:url(#drop-shadow-2);}.cls-5{filter:url(#drop-shadow-3);}</style><filter id="drop-shadow-1" filterUnits="userSpaceOnUse"><feOffset dx="7" dy="7"/><feGaussianBlur result="blur" stdDeviation="5"/><feFlood flood-color="#273456" flood-opacity=".5"/><feComposite in2="blur" operator="in"/><feComposite in="SourceGraphic"/></filter><filter id="drop-shadow-2" filterUnits="userSpaceOnUse"><feOffset dx="7" dy="7"/><feGaussianBlur result="blur-2" stdDeviation="5"/><feFlood flood-color="#273456" flood-opacity=".5"/><feComposite in2="blur-2" operator="in"/><feComposite in="SourceGraphic"/></filter><filter id="drop-shadow-3" filterUnits="userSpaceOnUse"><feOffset dx="7" dy="7"/><feGaussianBlur result="blur-3" stdDeviation="5"/><feFlood flood-color="#273456" flood-opacity=".5"/><feComposite in2="blur-3" operator="in"/><feComposite in="SourceGraphic"/></filter><filter id="drop-shadow-4" filterUnits="userSpaceOnUse"><feOffset dx="7" dy="7"/><feGaussianBlur result="blur-4" stdDeviation="5"/><feFlood flood-color="#273456" flood-opacity=".5"/><feComposite in2="blur-4" operator="in"/><feComposite in="SourceGraphic"/></filter><filter id="drop-shadow-5" filterUnits="userSpaceOnUse"><feOffset dx="7" dy="7"/><feGaussianBlur result="blur-5" stdDeviation="5"/><feFlood flood-color="#273456" flood-opacity=".5"/><feComposite in2="blur-5" operator="in"/><feComposite in="SourceGraphic"/></filter><filter id="drop-shadow-6" filterUnits="userSpaceOnUse"><feOffset dx="7" dy="7"/><feGaussianBlur result="blur-6" stdDeviation="5"/><feFlood flood-color="#273456" flood-opacity=".5"/><feComposite in2="blur-6" operator="in"/><feComposite in="SourceGraphic"/></filter></defs><g id="Layer_1-2"><g class="cls-2"><path class="cls-4" d="m140.26,9.45c1.5,0,2.89.14,4.16.41s2.37.69,3.29,1.25,1.64,1.28,2.16,2.16.77,1.93.77,3.16v13.5h-6.07v-13.27c0-.69-.16-1.23-.47-1.62s-.7-.68-1.15-.87-.93-.3-1.42-.35-.92-.07-1.28-.07-.78.02-1.27.07-.95.16-1.41.35-.84.48-1.15.87-.47.93-.47,1.62v9.02c.44-.11.83-.31,1.18-.6s.65-.63.89-1.03.43-.85.57-1.36.22-1.04.23-1.61l-1.83-.19v-3.47h6.09c.09.58.18,1.15.25,1.72s.11,1.15.11,1.75c0,1.55-.21,2.9-.64,4.05s-1.05,2.11-1.85,2.87-1.79,1.33-2.95,1.71-2.48.57-3.95.57c-.52,0-1.12-.04-1.8-.11s-1.48-.19-2.37-.36v-13.22c0-1.23.26-2.29.77-3.16s1.23-1.59,2.16-2.16,2.02-.98,3.28-1.25,2.65-.41,4.15-.41Z"/><path class="cls-4" d="m150.65,3.12v4.27h-18.63V3.12h18.63Z"/><path class="cls-4" d="m176.85,26.16v3.77h-3.73c-.62,0-1.25-.08-1.86-.23s-1.17-.4-1.65-.74-.88-.78-1.17-1.32-.45-1.22-.45-2.02v-14.32l-3.49-2.44v-.98c0-1.03.21-1.9.62-2.61s.95-1.29,1.61-1.73,1.39-.77,2.2-.96,1.61-.29,2.39-.29c.7,0,1.45.11,2.25.32s1.53.55,2.2,1.02,1.23,1.09,1.68,1.85.67,1.7.67,2.81h-5.23c-.03-.5-.1-.89-.21-1.16s-.23-.48-.36-.61-.27-.21-.42-.23-.28-.04-.39-.04c-.38,0-.65.12-.83.35s-.27.53-.27.89v.35l3.77,2.6v14.34c0,.33.04.58.11.75s.15.3.25.38.2.12.3.14.2.02.28.02l1.73.09Z"/><path class="cls-4" d="m189.06,9.45c1.48,0,2.77.15,3.86.46s2.01.72,2.78,1.24,1.39,1.13,1.86,1.82.85,1.41,1.12,2.18.46,1.54.56,2.33.15,1.55.15,2.29-.05,1.5-.15,2.3-.29,1.58-.56,2.34-.65,1.5-1.12,2.19-1.1,1.3-1.86,1.83-1.69.94-2.78,1.24-2.37.46-3.86.46c-1.38,0-2.83-.11-4.36-.33s-3.01-.48-4.43-.8v-11.3h8.55v3.49l-2.65.16v4.15c.86.09,1.69.14,2.48.14,1.7,0,2.91-.5,3.62-1.49s1.07-2.49,1.07-4.49c0-.98-.09-1.83-.26-2.53s-.45-1.27-.82-1.71-.86-.76-1.45-.96-1.31-.3-2.16-.3c-1.03,0-2.29.11-3.77.33s-3.02.48-4.62.8v-4.71c1.42-.31,2.9-.58,4.43-.8s2.98-.33,4.36-.33Z"/><path class="cls-4" d="m221.73,29.93h-6.07v-9c-.47.08-.95.16-1.43.25s-.96.17-1.42.25-.89.15-1.28.22-.73.14-1.01.2c-.56.11-1.06.34-1.5.68s-.66.86-.66,1.55.25,1.17.75,1.41,1.19.35,2.06.35h2.25v4.1h-3c-2.91,0-5.04-.5-6.41-1.49s-2.05-2.59-2.05-4.79c0-.86.18-1.64.55-2.34s.88-1.32,1.54-1.84,1.45-.96,2.37-1.31,1.95-.61,3.07-.79c.86-.12,1.84-.26,2.93-.4s2.16-.27,3.21-.4c-.03-.61-.14-1.08-.33-1.41s-.46-.57-.81-.71-.79-.23-1.31-.25-1.14-.02-1.86-.02c-1.08,0-2.29.11-3.64.34s-2.88.52-4.58.88v-4.73c1.5-.34,2.96-.63,4.37-.87s2.84-.35,4.28-.35c2.17,0,3.91.22,5.23.67s2.32,1.04,3.02,1.79,1.17,1.61,1.39,2.59.34,2,.34,3.06v12.38Z"/><path class="cls-4" d="m236.31,9.45c1.5,0,2.89.14,4.16.41s2.37.69,3.29,1.25,1.64,1.28,2.16,2.16.77,1.93.77,3.16v13.5h-6.07v-13.27c0-.69-.16-1.23-.47-1.62s-.7-.68-1.15-.87-.93-.3-1.42-.35-.92-.07-1.28-.07-.78.02-1.27.07-.95.16-1.41.35-.84.48-1.15.87-.47.93-.47,1.62v9.02c.44-.11.83-.31,1.18-.6s.65-.63.89-1.03.43-.85.57-1.36.22-1.04.23-1.61l-1.83-.19v-3.47h6.09c.09.58.18,1.15.25,1.72s.11,1.15.11,1.75c0,1.55-.21,2.9-.64,4.05s-1.05,2.11-1.85,2.87-1.79,1.33-2.95,1.71-2.48.57-3.95.57c-.52,0-1.12-.04-1.8-.11s-1.48-.19-2.37-.36v-13.22c0-1.23.26-2.29.77-3.16s1.23-1.59,2.16-2.16,2.02-.98,3.28-1.25,2.65-.41,4.15-.41Z"/><path class="cls-4" d="m245.52,0v1.17l-2.27,2.67h1.59v3.54h-8.41v-2.77l3.73-4.62h5.37Z"/><path class="cls-4" d="m280.63,13.48c.31.66.53,1.31.64,1.96s.18,1.36.18,2.12v12.38h-6.07v-9c-.47.08-.95.16-1.43.25s-.96.17-1.42.25-.89.15-1.28.22-.73.14-1.01.2c-.56.11-1.06.34-1.5.68s-.66.86-.66,1.55.25,1.17.75,1.41,1.19.35,2.06.35h2.25v4.1h-3c-2.91,0-5.04-.5-6.41-1.49s-2.05-2.59-2.05-4.79c0-.86.18-1.64.55-2.34s.88-1.32,1.54-1.84,1.45-.96,2.37-1.31,1.95-.61,3.07-.79c.86-.12,1.84-.26,2.93-.4s2.16-.27,3.21-.4c-.03-.61-.14-1.08-.33-1.41s-.46-.57-.81-.71-.79-.23-1.31-.25-1.14-.02-1.86-.02c-1.08,0-2.29.11-3.64.34s-2.88.52-4.58.88v-4.73c1.5-.34,2.96-.63,4.37-.87s2.84-.35,4.28-.35c1.27,0,2.38.08,3.33.25s1.78.4,2.48.71c.14-.25.23-.56.27-.93s.06-.81.06-1.32h5.6v1.66c0,.8-.23,1.51-.69,2.13s-1.07,1.12-1.82,1.5l-.07.02Z"/><path class="cls-4" d="m298.33,9.61h6.07v13.69c0,1.23-.27,2.29-.8,3.15s-1.24,1.57-2.12,2.11-1.9.93-3.05,1.17-2.34.36-3.57.36h-.09c-1.38,0-2.65-.13-3.82-.39s-2.18-.66-3.04-1.22-1.52-1.27-1.99-2.14-.71-1.93-.71-3.16.23-2.21.7-2.96,1.16-1.36,2.09-1.82c-.69-.53-1.23-1.18-1.62-1.95s-.59-1.8-.59-3.09v-3.75h8.74v3.47l-2.67.19c0,.75.06,1.36.19,1.82s.31.82.56,1.07.56.41.93.49.8.12,1.3.12h1.43v3.63h-2.23c-.44.02-.82.06-1.14.14s-.59.21-.8.4-.37.45-.47.79-.15.76-.15,1.28c0,.69.14,1.22.41,1.61s.59.66.95.83.73.27,1.1.3.66.05.87.05.5-.02.9-.07.79-.17,1.17-.36.72-.49,1.01-.88.43-.93.43-1.62v-13.24Z"/><path class="cls-4" d="m323.22,29.93h-6.07v-12.84c0-.66-.09-1.19-.28-1.59s-.43-.72-.71-.95-.62-.38-.98-.46-.74-.12-1.11-.12c-1.06,0-2.12.09-3.19.27s-2.12.36-3.19.53v-4.41c1.16-.27,2.3-.48,3.45-.66s2.24-.26,3.3-.26c1.67,0,3.07.25,4.2.75s2.03,1.14,2.71,1.91,1.16,1.63,1.45,2.57.43,1.84.43,2.72v12.54Z"/><path class="cls-4" d="m347.36,26.58c-.45.97-1.07,1.71-1.86,2.24s-1.73.87-2.81,1.04-2.26.26-3.53.26c-.56,0-1.11-.06-1.63-.19s-1.02-.31-1.48-.56-.87-.56-1.23-.93-.66-.79-.89-1.25c-.19.56-.43,1.02-.71,1.37s-.61.63-.97.84-.74.36-1.15.43-.81.12-1.22.12h-3.38v-3.47l1.52-.09c.11,0,.23-.03.36-.08s.26-.14.38-.26.21-.29.28-.5.11-.49.11-.82v-11.46l-2.65-.19v-3.47h8.72v8.44c0,.47.02.99.07,1.56s.13,1.14.25,1.72.28,1.14.48,1.68.46,1.02.76,1.43.67.75,1.1,1,.93.38,1.49.38c.2,0,.45-.02.75-.06s.58-.16.86-.36.51-.51.7-.93.29-.99.29-1.72v-13.12h6.07v13.12c0,1.59-.23,2.88-.68,3.84Z"/><path class="cls-4" d="m387.15,9.61v13.12c0,1.31-.11,2.44-.34,3.38s-.6,1.7-1.12,2.3-1.21,1.03-2.07,1.3-1.91.41-3.16.41c-.94,0-1.76-.12-2.46-.38s-1.3-.62-1.8-1.1c-.98.98-2.41,1.48-4.27,1.48-1.25,0-2.3-.14-3.15-.41s-1.54-.71-2.06-1.3-.9-1.36-1.12-2.3-.34-2.06-.34-3.38v-9.47l-2.67-.19v-3.47h8.74v13.12c0,.72.04,1.29.12,1.7s.17.72.28.93.22.33.34.38.22.07.32.07c.25,0,.47-.06.66-.19s.34-.43.47-.9.22-1.19.28-2.14.09-2.26.09-3.91v-5.55h4.66v5.53c0,1.66.03,2.96.09,3.91s.16,1.67.28,2.16.28.79.47.91.41.19.66.19c.09,0,.2-.02.32-.07s.23-.17.34-.38.2-.51.28-.93.12-.98.12-1.7v-13.12h6.07Z"/><path class="cls-4" d="m410.19,29.93h-6.07v-9c-.47.08-.95.16-1.43.25s-.96.17-1.42.25-.89.15-1.28.22-.73.14-1.01.2c-.56.11-1.06.34-1.5.68s-.66.86-.66,1.55.25,1.17.75,1.41,1.19.35,2.06.35h2.25v4.1h-3c-2.91,0-5.04-.5-6.41-1.49s-2.05-2.59-2.05-4.79c0-.86.18-1.64.55-2.34s.88-1.32,1.54-1.84,1.45-.96,2.37-1.31,1.95-.61,3.07-.79c.86-.12,1.84-.26,2.93-.4s2.16-.27,3.21-.4c-.03-.61-.14-1.08-.33-1.41s-.46-.57-.81-.71-.79-.23-1.31-.25-1.14-.02-1.86-.02c-1.08,0-2.29.11-3.64.34s-2.88.52-4.58.88v-4.73c1.5-.34,2.96-.63,4.37-.87s2.84-.35,4.28-.35c2.17,0,3.91.22,5.23.67s2.32,1.04,3.02,1.79,1.17,1.61,1.39,2.59.34,2,.34,3.06v12.38Z"/><path class="cls-4" d="m429.01,29.93h-6.07v-12.84c0-.66-.09-1.19-.28-1.59s-.43-.72-.71-.95-.62-.38-.98-.46-.74-.12-1.11-.12c-1.06,0-2.12.09-3.19.27s-2.12.36-3.19.53v-4.41c1.16-.27,2.3-.48,3.45-.66s2.24-.26,3.3-.26c1.67,0,3.07.25,4.2.75s2.03,1.14,2.71,1.91,1.16,1.63,1.45,2.57.43,1.84.43,2.72v12.54Z"/><path class="cls-4" d="m442.19,25.9c.31,0,.63-.04.96-.12s.62-.23.89-.47.48-.56.64-.97.25-.96.25-1.63v-2.86c0-.56-.06-1.04-.18-1.42s-.28-.7-.48-.95-.44-.43-.71-.54-.57-.18-.9-.21v-3.73c.58-.06,1.04-.16,1.38-.3s.61-.34.79-.61.28-.6.29-1.01-.02-.9-.09-1.48h5.98c.17,1.14.06,2.13-.34,2.96s-1.11,1.59-2.14,2.26c.7.52,1.29,1.2,1.76,2.06s.71,1.88.73,3.07v2.72c0,1.2-.15,2.27-.45,3.19s-.79,1.7-1.46,2.33-1.59,1.11-2.72,1.43-2.53.48-4.18.48-3.07-.16-4.2-.48-2.03-.8-2.72-1.43-1.18-1.41-1.48-2.33-.45-1.98-.45-3.19v-1.57c0-.38.05-.83.15-1.37s.29-1.15.56-1.83.65-1.41,1.12-2.2,1.09-1.62,1.84-2.5l-2.2.84-2.77-1.38v-3.77l2.77,1.43,2.67-.73h4.1v2.39c0,1.06-.11,1.96-.34,2.71s-.48,1.43-.75,2.07-.52,1.28-.75,1.92-.34,1.38-.34,2.23v1.78c0,.67.09,1.21.26,1.63s.39.74.66.97.56.39.89.47.65.12.96.12Z"/><path class="cls-4" d="m451.02,7.38h-6.07V.87h6.07v6.52Z"/><path class="cls-4" d="m469.84,29.93h-6.07v-12.84c0-.66-.09-1.19-.28-1.59s-.43-.72-.71-.95-.62-.38-.98-.46-.74-.12-1.11-.12c-1.06,0-2.12.09-3.19.27s-2.12.36-3.19.53v-4.41c1.16-.27,2.3-.48,3.45-.66s2.24-.26,3.3-.26c1.67,0,3.07.25,4.2.75s2.03,1.14,2.71,1.91,1.16,1.63,1.45,2.57.43,1.84.43,2.72v12.54Z"/></g><g class="cls-7"><path class="cls-4" d="m59.55,92.29h-18.3v-27.12c-1.41.24-2.85.48-4.31.74-1.46.26-2.88.51-4.27.74-1.39.24-2.67.46-3.85.67-1.18.21-2.19.41-3.04.6-1.7.33-3.2,1.01-4.52,2.05-1.32,1.04-1.98,2.59-1.98,4.66s.75,3.53,2.26,4.24c1.51.71,3.58,1.06,6.22,1.06h6.78v12.36h-9.04c-8.76,0-15.2-1.49-19.32-4.49-4.12-2.99-6.18-7.81-6.18-14.45,0-2.59.55-4.94,1.66-7.06,1.11-2.12,2.65-3.97,4.63-5.55,1.98-1.58,4.36-2.9,7.13-3.96,2.78-1.06,5.86-1.85,9.25-2.37,2.59-.38,5.53-.78,8.83-1.2,3.3-.42,6.52-.82,9.68-1.2-.09-1.84-.42-3.25-.99-4.24s-1.38-1.71-2.44-2.15c-1.06-.45-2.38-.69-3.96-.74-1.58-.05-3.45-.07-5.62-.07-3.25,0-6.91.34-10.98,1.02-4.07.68-8.68,1.57-13.81,2.65v-14.27c4.52-1.04,8.91-1.91,13.17-2.61,4.26-.71,8.56-1.06,12.89-1.06,6.55,0,11.8.67,15.75,2.01s6.99,3.14,9.11,5.4,3.52,4.86,4.2,7.81c.68,2.94,1.02,6.02,1.02,9.22v37.3Z"/><path class="cls-4" d="m84.74,54.85c2.71,0,5.06.28,7.05.83,1.98.56,3.68,1.31,5.08,2.27,1.4.96,2.53,2.06,3.41,3.32.87,1.26,1.56,2.58,2.06,3.98.5,1.4.84,2.82,1.03,4.26.19,1.44.28,2.83.28,4.18s-.09,2.74-.28,4.2c-.19,1.46-.53,2.88-1.03,4.28-.5,1.4-1.19,2.73-2.06,4-.87,1.27-2.01,2.38-3.41,3.34-1.4.96-3.09,1.71-5.08,2.27-1.98.56-4.33.84-7.05.84-2.51,0-5.17-.2-7.97-.6-2.8-.4-5.5-.88-8.09-1.46v-20.64h15.63v6.38l-4.84.3v7.58c1.57.17,3.08.26,4.54.26,3.11,0,5.32-.91,6.62-2.72,1.3-1.81,1.95-4.55,1.95-8.2,0-1.8-.16-3.34-.47-4.63-.31-1.28-.81-2.33-1.5-3.13-.69-.8-1.57-1.38-2.66-1.76-1.09-.37-2.4-.56-3.94-.56-1.88,0-4.18.2-6.9.6-2.71.4-5.52.89-8.44,1.46v-8.61c2.6-.57,5.3-1.06,8.09-1.46,2.8-.4,5.45-.6,7.97-.6Z"/><path class="cls-4" d="m133.18,55.15h11.09v25.01c0,2.26-.49,4.18-1.46,5.76-.97,1.58-2.26,2.87-3.88,3.85-1.61.98-3.47,1.7-5.57,2.14-2.1.44-4.28.66-6.53.66h-.17c-2.51,0-4.84-.24-6.98-.71s-3.99-1.21-5.55-2.23c-1.56-1.01-2.77-2.32-3.64-3.92-.87-1.6-1.31-3.53-1.31-5.78s.43-4.03,1.28-5.42c.86-1.38,2.13-2.49,3.81-3.32-1.26-.97-2.24-2.16-2.96-3.56-.71-1.4-1.07-3.28-1.07-5.65v-6.85h15.98v6.34l-4.88.34c0,1.37.11,2.48.34,3.32.23.84.57,1.49,1.03,1.95.46.46,1.02.76,1.69.9.67.14,1.46.21,2.38.21h2.61v6.64h-4.07c-.8.03-1.49.11-2.08.26-.59.14-1.07.39-1.46.73-.39.34-.67.82-.86,1.43-.19.61-.28,1.39-.28,2.33,0,1.26.25,2.23.75,2.93.5.7,1.08,1.21,1.73,1.52.66.31,1.33.5,2.01.56.69.06,1.21.09,1.58.09s.92-.04,1.65-.13c.73-.09,1.44-.31,2.14-.66.7-.36,1.31-.89,1.84-1.61.53-.71.79-1.7.79-2.96v-24.2Z"/><path class="cls-4" d="m169.58,54.85c3,0,5.63.31,7.9.94s4.17,1.53,5.7,2.7c1.53,1.17,2.68,2.58,3.45,4.24.77,1.66,1.16,3.5,1.16,5.52v24.03h-11.09v-23.21c0-1.4-.29-2.53-.88-3.4-.59-.87-1.26-1.53-2.03-1.99-.77-.46-1.55-.76-2.33-.92-.79-.16-1.39-.24-1.82-.24-.66,0-1.4.07-2.23.21-.83.14-1.65.43-2.46.86-.81.43-1.55,1.01-2.21,1.76-.66.74-1.13,1.7-1.41,2.87l3.51,3.17v20.9h-11.09v-20.09l-3.9-3.73c.8-2.88,1.86-5.22,3.19-7,1.33-1.78,2.85-3.17,4.56-4.15,1.71-.98,3.58-1.64,5.61-1.97,2.03-.33,4.15-.49,6.38-.49Z"/><path class="cls-4" d="m225.13,80.46c0,2.06-.37,3.85-1.11,5.38-.74,1.53-1.79,2.79-3.13,3.79-1.34,1-2.96,1.75-4.84,2.25-1.88.5-3.96.75-6.21.75s-4.62-.2-7.26-.6c-2.64-.4-5.27-1-7.9-1.8v-8.65c1.23.29,2.51.57,3.85.86,1.34.29,2.68.54,4,.77,1.33.23,2.6.41,3.81.56,1.21.14,2.29.21,3.23.21,1.46,0,2.56-.21,3.32-.64.76-.43,1.16-1.11,1.22-2.06v-.13c-.03-.88-.51-1.58-1.46-2.1-.94-.51-2.31-1.04-4.11-1.58-2.17-.71-4.14-1.41-5.91-2.08s-3.28-1.44-4.52-2.29-2.21-1.86-2.89-3c-.69-1.14-1.03-2.53-1.03-4.15s.26-2.94.77-4.11c.51-1.17,1.18-2.16,2.01-2.98s1.78-1.48,2.85-2.01c1.07-.53,2.17-.93,3.3-1.22,1.13-.29,2.23-.49,3.32-.6,1.08-.11,2.06-.17,2.91-.17,1.88,0,4.1.19,6.64.58,2.54.39,5.05.99,7.54,1.82v8.61c-2.68-.88-5.2-1.56-7.56-2.01-2.36-.46-4.39-.69-6.1-.69s-2.82.19-3.58.58c-.76.39-1.16.94-1.22,1.65.03.69.38,1.19,1.05,1.52.67.33,1.53.66,2.59,1.01,2.17.71,4.25,1.41,6.23,2.1,1.98.69,3.73,1.49,5.25,2.42,1.51.93,2.71,2.03,3.6,3.3.88,1.27,1.33,2.85,1.33,4.73Z"/><path class="cls-4" d="m250.44,63.03v7.32h-19.1v-11.52h9.68l.51,3.85,8.91.34Zm0,19.96v7.28h-19.1v-11.44h9.68l.51,3.85,8.91.3Z"/><path class="cls-4" d="m283.68,54.85c2.51,0,4.48.29,5.89.88,1.41.59,2.47,1.34,3.17,2.27.7.93,1.13,1.98,1.31,3.15.17,1.17.26,2.34.26,3.51v27.62h-11.09v-25.14c0-.09,0-.28-.02-.58s-.06-.57-.15-.81c-.09-.24-.21-.36-.39-.34-.17.01-.4.31-.68.88l-11.52,26h-10.66v-30.45l-4.84-.34v-6.34h15.76v8.48c0,.89-.06,1.95-.17,3.19-.11,1.24-.32,2.75-.62,4.52-.3,1.77-.75,4-1.35,6.68.46-1.51.84-2.8,1.16-3.85.31-1.06.6-1.99.86-2.81.26-.81.51-1.56.75-2.23.24-.67.54-1.38.88-2.12.77-1.71,1.44-3.3,2.01-4.78.57-1.47,1.24-2.75,2.01-3.85.77-1.1,1.73-1.96,2.89-2.59s2.68-.94,4.56-.94Z"/><path class="cls-4" d="m311.35,67.06l5.44,17.43h.81c.94,0,1.76-.29,2.44-.88.69-.58,1.26-1.38,1.71-2.4.46-1.01.79-2.18,1.01-3.51s.32-2.75.32-4.26c0-1.77-.15-3.3-.45-4.6-.3-1.3-.86-2.37-1.67-3.21-.81-.84-1.93-1.47-3.34-1.88-1.41-.41-3.23-.63-5.46-.66v-8.14c.09,0,.29,0,.62-.02.33-.01.67-.02,1.03-.02s.69,0,1.01-.02c.31-.01.51-.02.6-.02,2.86,0,5.3.28,7.35.83,2.04.56,3.75,1.31,5.14,2.27,1.38.96,2.48,2.06,3.3,3.32.81,1.26,1.44,2.58,1.88,3.96.44,1.39.73,2.8.86,4.24.13,1.44.19,2.82.19,4.13s-.09,2.73-.26,4.18c-.17,1.44-.51,2.86-1.01,4.24-.5,1.39-1.18,2.7-2.06,3.94s-2.01,2.33-3.41,3.28c-1.4.94-3.08,1.69-5.05,2.23-1.97.54-4.31.81-7.02.81h-6.98l-8.48-25.23h11.48Z"/><path class="cls-4" d="m356.62,54.85c2.71,0,5.06.28,7.04.83s3.68,1.31,5.08,2.27c1.4.96,2.53,2.06,3.41,3.32.87,1.26,1.56,2.58,2.06,3.98.5,1.4.84,2.82,1.03,4.26.19,1.44.28,2.83.28,4.18s-.09,2.74-.28,4.2-.53,2.88-1.03,4.28c-.5,1.4-1.19,2.73-2.06,4-.87,1.27-2.01,2.38-3.41,3.34-1.4.96-3.09,1.71-5.08,2.27-1.98.56-4.33.84-7.04.84-2.51,0-5.17-.2-7.97-.6-2.8-.4-5.5-.88-8.09-1.46v-20.64h15.63v6.38l-4.84.3v7.58c1.57.17,3.08.26,4.54.26,3.11,0,5.32-.91,6.62-2.72,1.3-1.81,1.95-4.55,1.95-8.2,0-1.8-.16-3.34-.47-4.63-.31-1.28-.81-2.33-1.5-3.13-.69-.8-1.57-1.38-2.66-1.76-1.09-.37-2.4-.56-3.94-.56-1.88,0-4.18.2-6.9.6-2.71.4-5.53.89-8.44,1.46v-8.61c2.6-.57,5.3-1.06,8.09-1.46,2.8-.4,5.45-.6,7.97-.6Z"/><path class="cls-4" d="m397.99,54.85c2.71,0,5.06.28,7.04.83s3.68,1.31,5.08,2.27c1.4.96,2.53,2.06,3.41,3.32.87,1.26,1.56,2.58,2.06,3.98.5,1.4.84,2.82,1.03,4.26.19,1.44.28,2.83.28,4.18s-.09,2.74-.28,4.2-.53,2.88-1.03,4.28c-.5,1.4-1.19,2.73-2.06,4-.87,1.27-2.01,2.38-3.41,3.34-1.4.96-3.09,1.71-5.08,2.27-1.98.56-4.33.84-7.04.84-2.51,0-5.17-.2-7.97-.6-2.8-.4-5.5-.88-8.09-1.46v-20.64h15.63v6.38l-4.84.3v7.58c1.57.17,3.08.26,4.54.26,3.11,0,5.32-.91,6.62-2.72,1.3-1.81,1.95-4.55,1.95-8.2,0-1.8-.16-3.34-.47-4.63-.31-1.28-.81-2.33-1.5-3.13-.69-.8-1.57-1.38-2.66-1.76-1.09-.37-2.4-.56-3.94-.56-1.88,0-4.18.2-6.9.6-2.71.4-5.53.89-8.44,1.46v-8.61c2.6-.57,5.3-1.06,8.09-1.46,2.8-.4,5.45-.6,7.97-.6Z"/><path class="cls-4" d="m441.16,84.75c1.54,0,2.8-.43,3.77-1.28s1.72-1.93,2.25-3.21c.53-1.28.88-2.68,1.07-4.18.19-1.5.28-2.9.28-4.22v-16.7h11.09l.04,27.62c0,.6.06,1.1.19,1.5.13.4.29.71.49.92.2.21.41.37.64.47.23.1.46.15.69.15l2.53.17v6.34h-5.91c-.74,0-1.48-.07-2.23-.21-.74-.14-1.44-.41-2.1-.79-.66-.39-1.25-.9-1.78-1.54-.53-.64-.96-1.48-1.31-2.51-.83,1.74-2.08,3.07-3.77,3.98-1.69.91-3.54,1.37-5.57,1.37-2.31,0-4.45-.16-6.4-.47-1.96-.31-3.64-.95-5.05-1.91-1.41-.96-2.52-2.32-3.32-4.09-.8-1.77-1.2-4.11-1.2-7.02v-17.3l-4.84-.34v-6.34h15.93v23.98c0,1.34.16,2.39.49,3.15.33.76.73,1.32,1.2,1.69.47.37.96.59,1.48.66.51.07.96.11,1.33.11Z"/><path class="cls-4" d="m487.42,85.39v6.9h-6.81c-1.14,0-2.28-.14-3.4-.43-1.13-.29-2.13-.73-3.02-1.35-.89-.61-1.6-1.42-2.14-2.42-.54-1-.81-2.23-.81-3.68v-22.31c0-1.34.15-2.6.45-3.79.3-1.18.71-2.28,1.22-3.28s1.12-1.91,1.82-2.72c.7-.81,1.43-1.52,2.21-2.12l-3.6.86-7.84-2.06v-7.24l7.67,1.97,6.77-1.37h5.74l1.97,4.93c-.54.37-1.11.89-1.71,1.54-.6.66-1.15,1.41-1.65,2.25-.5.84-.91,1.75-1.24,2.72-.33.97-.49,1.97-.49,3v26.08c0,.6.06,1.06.19,1.37.13.31.28.54.45.69.17.14.36.23.56.26.2.03.37.04.51.04l3.17.17Z"/><path class="cls-4" d="m528.06,92.29h-11.09v-16.45c-.86.14-1.73.29-2.61.45-.88.16-1.75.31-2.59.45-.84.14-1.62.28-2.33.41-.71.13-1.33.25-1.84.36-1.03.2-1.94.61-2.74,1.24-.8.63-1.2,1.57-1.2,2.83s.46,2.14,1.37,2.57,2.17.64,3.77.64h4.11v7.5h-5.48c-5.31,0-9.22-.91-11.71-2.72-2.5-1.81-3.75-4.73-3.75-8.76,0-1.57.33-3,1.01-4.28.67-1.28,1.61-2.41,2.81-3.36s2.64-1.76,4.33-2.4c1.68-.64,3.55-1.12,5.61-1.44,1.57-.23,3.35-.47,5.35-.73,2-.26,3.95-.5,5.87-.73-.06-1.11-.26-1.97-.6-2.57-.34-.6-.84-1.03-1.48-1.31-.64-.27-1.44-.42-2.4-.45-.96-.03-2.09-.04-3.4-.04-1.97,0-4.19.21-6.66.62-2.47.41-5.26.95-8.37,1.61v-8.65c2.74-.63,5.4-1.16,7.99-1.58,2.58-.43,5.19-.64,7.82-.64,3.97,0,7.15.41,9.55,1.22,2.4.81,4.24,1.91,5.53,3.28s2.13,2.95,2.55,4.73c.41,1.78.62,3.65.62,5.59v22.61Z"/><path class="cls-4" d="m553.63,84.75c1.54,0,2.8-.43,3.77-1.28s1.72-1.93,2.25-3.21c.53-1.28.88-2.68,1.07-4.18.19-1.5.28-2.9.28-4.22v-16.7h11.09l.04,27.62c0,.6.06,1.1.19,1.5.13.4.29.71.49.92.2.21.41.37.64.47.23.1.46.15.69.15l2.53.17v6.34h-5.91c-.74,0-1.48-.07-2.23-.21-.74-.14-1.44-.41-2.1-.79-.66-.39-1.25-.9-1.78-1.54-.53-.64-.96-1.48-1.31-2.51-.83,1.74-2.08,3.07-3.77,3.98-1.69.91-3.54,1.37-5.57,1.37-2.31,0-4.45-.16-6.4-.47-1.96-.31-3.64-.95-5.05-1.91-1.41-.96-2.52-2.32-3.32-4.09-.8-1.77-1.2-4.11-1.2-7.02v-17.3l-4.84-.34v-6.34h15.93v23.98c0,1.34.16,2.39.49,3.15.33.76.73,1.32,1.2,1.69.47.37.96.59,1.48.66.51.07.96.11,1.33.11Z"/><path class="cls-4" d="m571.28,37.59v2.14l-4.15,4.88h2.91v6.47h-15.38v-5.05l6.81-8.44h9.81Z"/></g><path id="Logo" class="cls-5" d="m77.85,127.68c-1.4-1.45-3.22-2.05-3.99-1.26.77-.79.25-2.61-1.15-4.06l-2.09-2.17-2.09,2.17c-1.4,1.45-1.98,3.34-1.21,4.13-.77-.8-2.52-.26-3.92,1.19l-2.1,2.17,2.1,2.17c1.4,1.45,3.22,2.05,3.98,1.26-.77.79-.25,2.61,1.15,4.06l2.09,2.17,2.09-2.17c1.4-1.45,1.98-3.34,1.21-4.13.77.79,2.52.26,3.92-1.19l2.09-2.17-2.09-2.17Zm-7.23,4.61c-1.34,0-2.44-1.09-2.44-2.44s1.09-2.43,2.44-2.43,2.43,1.09,2.43,2.43-1.09,2.44-2.43,2.44Z"/><g class="cls-1"><path class="cls-4" d="m570.97,119.67c-3.04,3.68-8.68,4.93-12.99,2.88-2.49-1.18-4.44-3.27-6.81-4.68-8.26-4.91-19.14.12-21.45,9.32-1.32,5.27,1.09,11.47,5.99,13.8.02.01.05.02.07.03-.22-2.89-.43-5.83.19-8.66s2.22-5.59,4.8-6.92c-1.49,3.08-2.82,6.49-2.11,9.84.41,1.95,1.51,3.72,2.94,5.11,2.94,2.87,7.24,4.05,11.35,3.63.92-.1,1.84-.25,2.72-.51,4.83-1.42,8.84-5.04,11.36-9.41.31-.55.61-1.1.88-1.67,1.91-3.96,2.8-8.38,3.07-12.78Z"/></g><g class="cls-6"><path class="cls-4" d="m622.72,100.66c.1-.54.09-1.11-.05-1.81-1.02-4.97-.36-9.63,3.55-13.27.63-.58,1.96-.75,2.89-.6,2.23.36,4.39,1.15,6.61,1.54,9.12,1.57,18.51-9.52,13.87-18.65-1.59-3.13-2.42-6.73-3.15-10.21-.75-3.59.52-6.64,3.47-9.04,3.65-2.97,4.5-6.45,3.02-11.02-1.88,3.4-2.36,3.6-6.65,5.84-9.24,4.84-18.43,9.81-18.98,22.51-1.04-1.73-2.07-3.46-3.19-5.33-6.66,5.36-12.4,11.6-14.58,20.34-2.54,10.21,1.27,18.81,6.94,26.79.07-.15.12-.31.2-.45,1.47-2.75,3.59-4.97,6.07-6.65Z"/><path class="cls-4" d="m627.47,129.49c2.98-5.39,5.06-11.29,7.31-17.05,2.19-5.61,5.47-7.9,11.42-7.45.31.02.61.03,1.57.08-1.09-.94-1.67-1.56-2.36-2.01-6.75-4.48-15.67-3.97-22.1.37-2.48,1.67-4.6,3.89-6.07,6.65-.07.14-.13.3-.2.45-.55,1.21-.87,2.69-.69,3.94,2.2,15.2-4.72,26.14-19.45,30.54-.07.02-.14.05-.21.07-1.55,2.42-3.62,4.47-6.03,5.74-.63.34-1.33.59-2,.87,17.38.08,30.49-7.1,38.82-22.2Z"/><path class="cls-4" d="m597.98,142.68c9.66-3.08,16.13-11.59,16.61-21.88.34-7.37-2.11-13.75-6.39-19.53-4.67-6.28-6.07-13.23-4.55-20.84-.27-.21-.54-.42-.81-.63-2.79,3.06-5.98,5.85-8.3,9.24-4.79,6.98-3.85,14.48,2.06,20.53,1.4,1.44,2.83,2.88,4.42,4.1,6.34,4.85,5.63,15.59-1.16,20.2-.18.12-.36.26-.54.41.38,2.82-.13,5.74-1.33,8.41Z"/><path class="cls-4" d="m583.22,151.89c.71-.18,1.43-.34,2.11-.58,2.56-.92,4.9-2.66,6.78-4.84.59-.69,1.13-1.42,1.61-2.19,1.55-2.47,2.47-5.29,2.49-8.14,0-.4.05-.81.02-1.21-.84.3-1.68.61-2.67.97,2.17-11.13-2.41-17.73-11.56-17.96.76,2.57,2.12,5.13,2.18,7.72.14,6.95-5.23,11.56-12.29,11.24-1.08-.05-2.75.1-3.19.77-2.46,3.81-5.49,6.91-9.77,8.79,6.43,5.42,16.36,7.41,24.31,5.42Z"/></g><g class="cls-3"><path class="cls-4" d="m93.98,121.3v15.17h7.24l.44,2.02v.47h-10.41v-17.67h2.72Z"/><path class="cls-4" d="m105.21,130.14c0-.62.05-1.27.14-1.96s.25-1.36.47-2.02.51-1.29.89-1.9.85-1.13,1.42-1.58,1.24-.81,2.01-1.08,1.68-.4,2.71-.4,1.94.13,2.72.4,1.45.63,2.01,1.08,1.03.98,1.41,1.58.67,1.24.9,1.9.38,1.34.47,2.02.13,1.34.13,1.96-.05,1.28-.14,1.97-.25,1.37-.47,2.03-.52,1.29-.9,1.89-.85,1.12-1.42,1.58-1.24.82-2.02,1.09-1.68.4-2.72.4-1.93-.13-2.71-.4-1.44-.63-2-1.08-1.03-.98-1.41-1.58-.67-1.24-.89-1.9-.37-1.34-.46-2.02-.13-1.34-.13-1.98Zm12.39,0c0-.98-.09-1.87-.28-2.66s-.48-1.46-.87-2.02-.89-.98-1.49-1.28-1.31-.45-2.13-.45-1.51.15-2.11.45-1.09.73-1.49,1.28-.69,1.23-.88,2.02-.29,1.68-.29,2.66.1,1.87.29,2.66.49,1.47.88,2.03.89.99,1.49,1.29,1.3.45,2.11.45,1.53-.15,2.13-.45,1.09-.73,1.49-1.29.68-1.24.87-2.03.28-1.68.28-2.66Z"/><path class="cls-4" d="m123.63,121.3h2.92l4.25,8.95,4.06-8.95h3.2l-5.91,11.87v5.8h-2.72v-5.8l-5.8-11.37v-.49Z"/><path class="cls-4" d="m153.27,121.3h2.72v17.67h-2.72v-17.67Zm13.04.4l-6.7,8.37,4.04,5.68c.19.26.35.46.49.61s.28.25.4.33.25.12.37.14.25.04.39.05l1,.05v2.04h-1.12c-.42,0-.81-.02-1.18-.05s-.74-.16-1.12-.37-.78-.54-1.2-1-.88-1.11-1.4-1.95l-3.5-5.2v-.7l6.38-8.38h3.13v.4Z"/><path class="cls-4" d="m184.02,136.93v2.04h-1.07c-.42,0-.81-.02-1.16-.05s-.7-.16-1.04-.37-.68-.54-1.03-1-.72-1.11-1.13-1.95l-2.32-4.46h-2.43v7.84h-2.74v-17.42c.52-.07,1.07-.13,1.65-.19s1.18-.1,1.78-.12,1.19-.04,1.78-.04,1.15.02,1.68.07c.93.07,1.71.25,2.36.54s1.18.66,1.6,1.1.72.93.91,1.47.28,1.09.28,1.65v.25c0,.4-.05.84-.15,1.33s-.3.95-.6,1.4-.72.85-1.26,1.21-1.25.62-2.14.77l2.41,4.1c.3.55.58.98.83,1.29s.51.48.78.5l1,.05Zm-6.17-8.07c.22,0,.48-.03.76-.1s.56-.19.83-.38.49-.45.67-.79.27-.78.27-1.32c0-.5-.09-.91-.26-1.22s-.39-.55-.64-.73-.52-.3-.8-.37-.53-.12-.76-.14c-.25-.01-.54-.02-.88-.04s-.69-.02-1.06-.02-.74.01-1.12.04-.71.06-1.02.11v4.96h4.01Z"/><path class="cls-4" d="m199.14,135.34h-7.4l-1.09,3.62h-2.9l5.48-17.61c1.48-.21,2.95-.21,4.43,0l5.48,17.61h-2.9l-1.11-3.62Zm-3.22-11.48c-.09-.02-.25-.04-.48-.04s-.39.01-.48.04l-2.58,9.25h6.15l-2.6-9.25Z"/><path class="cls-4" d="m211.35,121.19c1.24,0,2.42.02,3.53.05s2.07.08,2.87.14v2.46c-.3-.01-.67-.03-1.11-.04s-.88-.03-1.34-.04-.93-.02-1.4-.04-.89-.02-1.27-.04v15.28h-2.74v-15.28c-.38.01-.79.02-1.25.04l-1.37.04c-.46.01-.89.03-1.31.04s-.77.03-1.06.04v-2.46c.8-.06,1.76-.11,2.88-.14s2.31-.05,3.57-.05Z"/><path class="cls-4" d="m236.11,121.3v17.67h-2.72v-7.79h-8.3v7.79h-2.72v-17.67h2.72v7.61h8.3v-7.61h2.72Z"/><path class="cls-4" d="m241.25,130.14c0-.62.05-1.27.14-1.96s.25-1.36.47-2.02.51-1.29.89-1.9.85-1.13,1.42-1.58,1.24-.81,2.01-1.08,1.68-.4,2.71-.4,1.94.13,2.72.4,1.45.63,2.01,1.08,1.03.98,1.41,1.58.67,1.24.9,1.9.38,1.34.47,2.02.13,1.34.13,1.96-.05,1.28-.14,1.97-.25,1.37-.47,2.03-.52,1.29-.9,1.89-.85,1.12-1.42,1.58-1.24.82-2.02,1.09-1.68.4-2.72.4-1.93-.13-2.71-.4-1.44-.63-2-1.08-1.03-.98-1.41-1.58-.67-1.24-.89-1.9-.37-1.34-.46-2.02-.13-1.34-.13-1.98Zm12.39,0c0-.98-.09-1.87-.28-2.66s-.48-1.46-.87-2.02-.89-.98-1.49-1.28-1.31-.45-2.13-.45-1.51.15-2.11.45-1.09.73-1.49,1.28-.69,1.23-.88,2.02-.29,1.68-.29,2.66.1,1.87.29,2.66.49,1.47.88,2.03.89.99,1.49,1.29,1.3.45,2.11.45,1.53-.15,2.13-.45,1.09-.73,1.49-1.29.68-1.24.87-2.03.28-1.68.28-2.66Z"/><path class="cls-4" d="m264.37,138.96h-2.72v-17.67h2.04l9.37,12.57v-12.57h2.74v17.68h-2.06l-9.37-12.57v12.55Z"/><path class="cls-4" d="m294.52,128.91v9.42c-.91.27-1.85.47-2.8.59s-1.97.18-3.05.18-2.1-.13-2.92-.4-1.52-.63-2.09-1.09-1.04-.98-1.4-1.58-.63-1.23-.83-1.89-.33-1.33-.4-2.01-.11-1.33-.11-1.95.04-1.27.11-1.96.22-1.36.42-2.03.49-1.3.85-1.91.84-1.13,1.42-1.59,1.29-.82,2.12-1.09,1.8-.4,2.93-.4c.95,0,1.93.08,2.94.23s1.94.36,2.79.62v2.46c-.42-.11-.86-.2-1.32-.29s-.92-.16-1.38-.23-.92-.11-1.37-.15-.89-.05-1.31-.05c-.97,0-1.8.13-2.48.4s-1.23.67-1.66,1.2-.74,1.18-.93,1.97-.29,1.69-.29,2.72.09,1.95.26,2.75.47,1.48.88,2.03.95.97,1.62,1.26,1.49.43,2.48.43c.42,0,.88-.02,1.38-.05s.98-.09,1.43-.16v-5.15h-2.65v-2.27h5.34Z"/><path class="cls-4" d="m310.25,138.96v-17.56c.88-.07,1.8-.12,2.75-.16s1.92-.05,2.88-.05,1.92.02,2.87.05,1.86.09,2.74.16v2.5c-.66-.04-1.35-.07-2.08-.11s-1.47-.07-2.21-.1-1.48-.03-2.2-.02-1.4.05-2.03.12v5.13h6.5v2.27h-6.5v7.77h-2.72Z"/><path class="cls-4" d="m329.37,123.79v5.13h6.5v2.27h-6.5v5.27h8.14l.44,2.02v.47h-11.3v-17.56c.88-.07,1.8-.12,2.75-.16s1.92-.05,2.88-.05,1.92.02,2.87.05,1.86.09,2.74.16v2.5c-.66-.04-1.35-.07-2.08-.11s-1.47-.07-2.21-.1-1.48-.03-2.2-.02-1.4.05-2.03.12Z"/><path class="cls-4" d="m345.53,125.69c0,.47.13.87.39,1.21s.6.64,1.02.91.9.51,1.44.73,1.09.45,1.65.69,1.11.49,1.65.77,1.02.61,1.44.99.76.83,1.02,1.34.39,1.12.39,1.82c0,.93-.19,1.71-.57,2.34s-.88,1.14-1.49,1.53-1.32.67-2.1.83-1.58.25-2.39.25c-.74,0-1.57-.07-2.49-.2s-1.78-.31-2.59-.52v-2.46c.33.08.69.16,1.1.25s.82.16,1.26.22.87.12,1.3.16.86.06,1.27.06c.36,0,.77-.02,1.22-.07s.88-.15,1.27-.31.74-.39,1.01-.69.41-.7.41-1.2c0-.42-.13-.79-.39-1.11s-.6-.6-1.02-.86-.9-.5-1.44-.74-1.09-.48-1.65-.73-1.11-.53-1.65-.83-1.02-.65-1.44-1.05-.76-.86-1.02-1.38-.39-1.13-.39-1.82c0-.82.17-1.52.5-2.11s.78-1.07,1.34-1.44,1.19-.65,1.9-.83,1.44-.26,2.21-.26c.84,0,1.7.07,2.56.21s1.7.32,2.52.53v2.46c-1.02-.25-1.96-.43-2.83-.56s-1.7-.16-2.5-.11c-1.01.06-1.74.28-2.21.65s-.69.81-.69,1.32Z"/><path class="cls-4" d="m365.06,121.19c1.24,0,2.42.02,3.53.05s2.07.08,2.87.14v2.46c-.3-.01-.67-.03-1.11-.04s-.88-.03-1.34-.04-.93-.02-1.4-.04-.89-.02-1.27-.04v15.28h-2.74v-15.28c-.38.01-.79.02-1.25.04l-1.37.04c-.46.01-.89.03-1.31.04s-.77.03-1.06.04v-2.46c.8-.06,1.76-.11,2.88-.14s2.31-.05,3.57-.05Z"/><path class="cls-4" d="m376.6,138.96v-17.67h2.72v17.67h-2.72Z"/><path class="cls-4" d="m396.63,121.3h2.87l-4.99,17.67h-5.22l-4.99-17.67h2.87l4.17,15.06h1.12l4.18-15.06Z"/><path class="cls-4" d="m412.28,135.34h-7.4l-1.09,3.62h-2.9l5.48-17.61c1.48-.21,2.95-.21,4.43,0l5.48,17.61h-2.9l-1.11-3.62Zm-3.22-11.48c-.09-.02-.25-.04-.48-.04s-.39.01-.48.04l-2.58,9.25h6.15l-2.6-9.25Z"/><path class="cls-4" d="m423.63,121.3v15.17h7.24l.44,2.02v.47h-10.41v-17.67h2.72Z"/><path class="cls-4" d="m457.37,136.47v2.5h-11.21v-.74c.35-.38.8-.88,1.34-1.51s1.11-1.33,1.71-2.1,1.2-1.58,1.79-2.43,1.13-1.68,1.61-2.48.86-1.56,1.16-2.27.45-1.31.45-1.8c0-.43-.1-.78-.31-1.04s-.47-.45-.79-.59-.68-.22-1.08-.26-.8-.06-1.2-.06c-.66,0-1.38.07-2.16.2s-1.51.29-2.18.47v-2.43c.7-.18,1.48-.34,2.33-.49s1.64-.23,2.38-.23,1.4.07,2.08.21,1.3.38,1.85.72.98.79,1.32,1.36.5,1.29.5,2.15c0,.35-.07.78-.22,1.27s-.35,1.04-.62,1.63-.58,1.22-.95,1.88-.78,1.34-1.23,2.02-.93,1.37-1.45,2.05-1.05,1.33-1.6,1.95h6.49Z"/><path class="cls-4" d="m468.05,121.19c.82,0,1.63.11,2.42.34s1.5.65,2.13,1.27,1.13,1.48,1.51,2.57.57,2.5.57,4.24v1.09c0,1.73-.19,3.15-.57,4.24s-.88,1.95-1.51,2.57-1.34,1.05-2.13,1.27-1.6.34-2.42.34-1.61-.11-2.39-.34-1.49-.65-2.12-1.27-1.13-1.48-1.51-2.57-.57-2.5-.57-4.24v-1.09c0-1.73.19-3.15.57-4.24s.88-1.95,1.51-2.57,1.33-1.05,2.12-1.27,1.58-.34,2.39-.34Zm3.99,8.42c0-.97-.07-1.8-.2-2.48s-.31-1.25-.53-1.7-.47-.8-.75-1.05-.57-.44-.86-.55-.58-.19-.86-.22-.53-.04-.76-.04c-.23,0-.49.01-.77.04s-.57.1-.86.22-.58.3-.86.55-.53.6-.75,1.05-.39,1.02-.53,1.7-.2,1.51-.2,2.48v1.09c0,.97.07,1.8.2,2.48s.31,1.24.53,1.69.47.79.75,1.05.57.44.86.56.58.2.86.23.54.04.77.04.47-.01.76-.04.57-.11.86-.23.58-.31.86-.56.53-.6.75-1.05.39-1.01.53-1.69.2-1.51.2-2.48v-1.09Z"/><path class="cls-4" d="m490.68,136.47v2.5h-11.21v-.74c.35-.38.8-.88,1.34-1.51s1.11-1.33,1.71-2.1,1.2-1.58,1.79-2.43,1.13-1.68,1.61-2.48.86-1.56,1.16-2.27.45-1.31.45-1.8c0-.43-.1-.78-.31-1.04s-.47-.45-.79-.59-.68-.22-1.08-.26-.8-.06-1.2-.06c-.66,0-1.38.07-2.16.2s-1.51.29-2.18.47v-2.43c.7-.18,1.48-.34,2.33-.49s1.64-.23,2.38-.23,1.4.07,2.08.21,1.3.38,1.85.72.98.79,1.32,1.36.5,1.29.5,2.15c0,.35-.07.78-.22,1.27s-.35,1.04-.62,1.63-.58,1.22-.95,1.88-.78,1.34-1.23,2.02-.93,1.37-1.45,2.05-1.05,1.33-1.6,1.95h6.49Z"/><path class="cls-4" d="m505.51,122.99l-4.13,5.4c1.01.01,1.85.18,2.54.52s1.24.76,1.65,1.27.71,1.08.88,1.7.25,1.22.24,1.79c-.02.91-.21,1.71-.56,2.4s-.82,1.25-1.4,1.71-1.25.79-2.02,1.01-1.58.33-2.43.33c-.77,0-1.57-.07-2.4-.21s-1.63-.31-2.4-.51v-2.43c.7.16,1.44.32,2.22.47s1.54.22,2.28.22c.49,0,.98-.05,1.47-.14s.92-.25,1.31-.48.7-.53.94-.91.36-.86.36-1.45c0-.45-.06-.86-.17-1.23s-.3-.7-.57-.98-.64-.49-1.11-.64-1.06-.23-1.78-.23h-2.29v-1.69l3.74-5.2c-1.05-.02-2.09-.03-3.12-.02s-2.02.05-3,.11v-2.41c1.59-.13,3.2-.18,4.83-.17s3.26.08,4.91.18v1.6Z"/></g></g></svg>